<mxfile host="www.draw.io" modified="2019-11-04T17:32:17.205Z" agent="Mozilla/5.0 (Macintosh; Intel Mac OS X 10_14_6) AppleWebKit/537.36 (KHTML, like Gecko) Chrome/78.0.3904.70 Safari/537.36" etag="zoH9sEpWnplFrzfqep6d" version="12.1.9" type="github" pages="1">
  <diagram id="txk5RKS5_LCDFzFhNxka" name="第 1 页">
    <mxGraphModel dx="1599" dy="473" grid="1" gridSize="10" guides="1" tooltips="1" connect="1" arrows="1" fold="1" page="1" pageScale="1" pageWidth="827" pageHeight="1169" math="0" shadow="0">
      <root>
        <mxCell id="0"/>
        <mxCell id="1" parent="0"/>
        <mxCell id="2h3vU0DmQZ6PKFMCKHge-1" value="" style="rounded=0;whiteSpace=wrap;html=1;" vertex="1" parent="1">
          <mxGeometry x="140" y="180" width="470" height="70" as="geometry"/>
        </mxCell>
        <mxCell id="2h3vU0DmQZ6PKFMCKHge-3" value="" style="endArrow=none;html=1;entryX=0.211;entryY=0.014;entryDx=0;entryDy=0;entryPerimeter=0;" edge="1" parent="1" target="2h3vU0DmQZ6PKFMCKHge-1">
          <mxGeometry width="50" height="50" relative="1" as="geometry">
            <mxPoint x="240" y="250" as="sourcePoint"/>
            <mxPoint x="290" y="200" as="targetPoint"/>
          </mxGeometry>
        </mxCell>
        <mxCell id="2h3vU0DmQZ6PKFMCKHge-4" value="" style="endArrow=none;html=1;entryX=0.211;entryY=0.014;entryDx=0;entryDy=0;entryPerimeter=0;" edge="1" parent="1">
          <mxGeometry width="50" height="50" relative="1" as="geometry">
            <mxPoint x="501" y="250" as="sourcePoint"/>
            <mxPoint x="500.16999999999996" y="180.98000000000002" as="targetPoint"/>
          </mxGeometry>
        </mxCell>
        <mxCell id="2h3vU0DmQZ6PKFMCKHge-5" value="对象内存" style="text;strokeColor=none;fillColor=none;html=1;fontSize=24;fontStyle=1;verticalAlign=middle;align=center;" vertex="1" parent="1">
          <mxGeometry x="325" y="120" width="100" height="40" as="geometry"/>
        </mxCell>
        <mxCell id="2h3vU0DmQZ6PKFMCKHge-8" value="对象头&lt;br&gt;Header" style="text;html=1;resizable=0;autosize=1;align=center;verticalAlign=middle;points=[];fillColor=none;strokeColor=none;rounded=0;" vertex="1" parent="1">
          <mxGeometry x="165" y="200" width="50" height="30" as="geometry"/>
        </mxCell>
        <mxCell id="2h3vU0DmQZ6PKFMCKHge-9" value="实例数据&lt;br&gt;Instance Data" style="text;html=1;resizable=0;autosize=1;align=center;verticalAlign=middle;points=[];fillColor=none;strokeColor=none;rounded=0;" vertex="1" parent="1">
          <mxGeometry x="330" y="200" width="90" height="30" as="geometry"/>
        </mxCell>
        <mxCell id="2h3vU0DmQZ6PKFMCKHge-10" value="对齐填充&lt;br&gt;Padding" style="text;html=1;resizable=0;autosize=1;align=center;verticalAlign=middle;points=[];fillColor=none;strokeColor=none;rounded=0;" vertex="1" parent="1">
          <mxGeometry x="530" y="200" width="60" height="30" as="geometry"/>
        </mxCell>
        <mxCell id="2h3vU0DmQZ6PKFMCKHge-12" value="" style="shape=image;verticalLabelPosition=bottom;labelBackgroundColor=#ffffff;verticalAlign=top;aspect=fixed;imageAspect=0;image=data:image/png,iVBORw0KGgoAAAANSUhEUgAAAggAAABtCAYAAADEWpmjAAAgAElEQVR4XuzdB5RlWVU+8Nd/c845Z1EMGDCLGbOCiRwlSM7ZIcMMDDIEYQDJIhgQE4qKWUyIYsaEARFBUTBhmJn+r9/Vr92zOfe++6qqu6u6661Vq6revffEvb/97X3O3efEyZMnT242m83//vLnqc+JEyeu9P/cP3m23j/6Ls/Xuubq2E97VjV6y03q17b8Pogyaxlz5c6NWx+PtG3Urozp0rwszfNofubmY9d+jNpby1ga773IRB+D+v+aue1tmxu3OXnpdczJ/qgt29q3pGNd16q8rNXrg5b5gyqvz2HKrXJ/pvu4BtO6/vd2L43PSI6W+ri2PSOdGo3n3HdLmF91wvNLmNX7vm0ud8GoNXK3RpeqnTzT8rWmDwd1Tx2LE5dffvnJf//3f9/8v//3/zb//d//vXmLt3iLqR6/R4o4Ghj3XXHFFVMZ/XrKiLDkejdie+ncWkKSiT0bkzo3XlXhjJ3xMX5RpBHAdwHNc5mrubquNOGN9I0M4KicXcZuTtm6EfV/+q0v6XuXkV1lo8ti6qnl+u6yyy7bvNVbvdWV5FxdnnfvCKTyXe7pba5z1EGxPpt+L5G5JQPi+csvv3y6ZaR3S/PVgboS4SWDsXYelozTQeh9xrjrTOZ527j1sdnFcK0Zg7WGe6mdvZ7TRRCW+rMLeajti/5VzJ8jdRXv6vwFC7v9mMPyuTHv41b7O3dtLVnoGN3HchfMXCNXvV1rxrTj0Zo2Zv4mjHvVq1518slPfvLmta997UQKkIS3fuu3nsBzVJhOB5D8rRBAlcF2LZOba36/5Vu+5VR+gLfeM1KGUd2jCV1jzJaMdDUa6U83UDFetU1pf/1u7r4+HrUfGZNqPAN8xsw8+M2QmZuMtef8ra2uV9Cshrd+H/JXFb8LWTdc1VDGeHbgUH9V6Gqg87zf6ndfiE364vlKEHJfl4HR+FYiW421ejK26qnlk2/fGdu3eZu3uRKpdd9//ud/TmPqJ7JQZd53KTP1ZAzmjFQnHHPglDnaJmvajdi/6U1vmtr59m//9qfGtj47IiAjAxmisV+CUJ/PmNW+rtHFOSOQ7+lC5uC//uu/pu5mrvymJ5GpKneRjyrzwbMO9pGXyOIcieiGLONYDV+vN3V5Nu3eRlKiU8HX3N/nazR/+hCMmMOrOZnI+NEV46p+slcNT8V0dZmT1Geu6if4QgfT1ox18Cx9U9fbvd3bnbpP2SHmIyyrRDkyV3U47QhmVDlI3V3P5zAo2DIi5xWH+vOj/0dzuIueVNtR5a6X0W1MldUqo9UGnHjjG9948nd+53emSXUhCjcCqnSug12APh0dsb8OWh24qoKOhDzeUjU4MTR90PvzEcCAdxWMOpnuq8RoqY11IkbtzXf1WoxSnZgQJ/dFuYC+/2N00vd8F9ByXx0X5WZMMskjRe5GzP95rnrGNaIRpSUfI0NdBay2oROwEIR879789Lno8zpSmtq/DvJzJNT35tkPoOrlZgzSrjr+7v3rv/7ryTB/3Md93ASYGb9KQur8d3lbMsKjayM5jx4E7PSlt7MD8zbwCEjOgVoF9N7OEKaqn+7J95Fv12t/8n+il/k/BrG3JfcFq+J8uM+8fPAHf/BUZ8YlBrU6J5nXYNx//Md/vFmXIwN53u+M7xyWjeQ1z2csRoQtbVOnOqrzUfWn42/V1Sr7Iz0ZOTQj3KyyWsvJvOZ6n+9aVpxM38GwEe6GOARzya86Qj4qGcnzcVxrW6oshaxXHOx2zLPq7jhZx3IOZ2q5dV4qqQgeVRkLRizZiU5MRk5f1c/cHz3JmFSnMXhUSYxy6z3B9Spb7/Ee77H52q/92s17vud7bqYlhlw0KZ3xdWXo/1dj0YFwBDTuqYM7B5aj77vAVkO3NKlr6psjA9vAcml8IlDd8MV4j4x4f8b/NUJTga+z3m4ge9vq2I8MaxeWalBS1hI5yPOZlz5fKS/tiGGNAo3qq32oMpG6luZ9Tv4yxjEucwShjkdt64te9KLNG9/4xs03fdM3XSmaNgLcqnhzstT7WNvT56wbgtquzGl/vsvBXH+3tS/jPzI2AdwAVZ3LPm+jOU0/qwyN5jYGNDIW8INdP/RDP7T5yq/8ys3bvu3bniLYoz6lrXPeXx/HbYRu7nol2DH+o77XSMscQYjejch0LTP1bMOzEKzenoqp+TtRzGCPsR7hPtKc7xP9VH6czoxTxr+Wh6S98zu/80Qo1Jey3JvIgbJC7iP3Kasbw4qZI53ptiPjlfGd07vqDHentY5lnMGQv2DOSKZ7290TR6ySK5FN12okNvJSnSHz43n3JvocgpuyjXEd18i8+97v/d5v88Vf/MWbd33Xd92cuOKKK7JPcepfGls7Vgd4znDPgdqSci0B+NK1JaCqALUEeEtkpivJXDSl920EzHPgWOv3XGWwtf70IZ53SEUmPP/Xfi/1bc24pqzIQh/T3u+qTH3sRt5QjEfu3VZ+N3AjkO3kZmQEU++cAa3GqRq4Kv/+/rEf+7HN3//9329ufOMbvxlBqGPT53iNPG7Tl7QxwDlnzHr/d5WJOTmZI2TbxjTlzbVraWw68HbvyXVA+d3f/d2bb/zGb5zC0uqZ85p3HYtKRta0M8ary+1IR6su9Llci4+jMa0EYdc5m6s33uqcbuR68KDiQtfPrsMZ47p0kOeX+jJnj5ZsRNfn3p88u2Trup6PbMGcTRz1fa4N/d7I0Ajveps6nimr6s6SLJ+qJwShD+hIqJbAa2kwqqBECdYo2l7umVOGXcrqArImPKd8CpIozL/9279t/uIv/mLz/u///hMTi4GPtwzQeKFCajweTO9f/uVfpjIw6d4P/2OQf/AHf7C5ylWuMoFgDDi2qIyQDO3/x3/8x+k7a9MZc9+P1vfn+tvnbaRYI+BfkpNuNEdgvQuA13u3GdeqhGvqqEBX+/6TP/mTm7/7u7/b3PCGN5zmtcrHmnKrDuxqMCtByDKJ78x1//i+gnr1nCMrPDeh2wBzjyLWMSB/Wc/OOn/63segz3MdvzkdjZFYo8N9nPXne7/3e6fQKJ1KiHZbWXMys2R012DJnHGZe3ZO10b3z0XxIt9LxriWN+pjbUeXneo8Vocm9fouez9GUcE+vyMsmBu3eOtdzlJPJREdk3bVsTXzO7rndNcz6uOIQMQWjezWWtISjDpxpfDBXkfmPH8uQg1sEQO/X/KSl2x+/Md/fHPb295285Ef+ZGn1i8Zdj/IwIUXXjiRgc/93M/dfOzHfuzmp37qpyaC8emf/umb93mf95muBbiBM0Jxu9vdbvOoRz1q84Ef+IGn1r/VZ+Jf//rXT2AvPPfc5z53877v+76bL/3SL52UloK913u91zRTo3X383wKV3U/8/wTP/ETUwThRje60ZsRuVUFHcBN5pNM/OAP/uDmHd7hHTZf+IVfOM17wrnAmgxlQ58qK5jqyz/8wz9svuM7vmNzgxvcYJK/hCs9m01k6TO5/uEf/uHNR33UR20++ZM/efMzP/Mzmw//8A+fyKp6s5lsLZk+gCG4UhHI0g/8wA9svvqrv3pqy9IeqoOu+1wpz1yTAT/kJns5YAt5f8UrXrG5+tWvPskY50coOs5P9Wy3kbI+XpGx1JfrdZnA33/1V381ybp6O6HqROFcmZOz3Y9jgnAAMxBmjRQ8/elPnwzyX/7lX07GHjnIRh1K9ymf8imbb/7mb9787d/+7ebxj3/8xoYQAPthH/ZhE0F43eteN3n9173udacfwPxHf/RHE+lAAJ70pCdtvu3bvm16jtIoH1n4xV/8xc2znvWsiRR4hpKmXmD5T//0T5v73ve+mw/5kA+ZDb0ewFCc00UcBoIQYDT33mL4vu/7vmmuv+RLvmTz/d///dM8A1HyctOb3vQUkczE/Mmf/MlEDMicKAiC8WVf9mXT5j7y8t7v/d6bT/zET5xuryD8spe9bCKmd7/73Sdi8NCHPnS6FwFOVGG0Y/xMCcQxQdj/SJvvGhnIxlff/dqv/drmZ3/2Zzd3vetdp+jkIx/5yEluyBCC6dl3eqd3Gr5yu7Zl0a9Ep/xGgrUDLj7ucY+biDCnh8z7/h3f8R2vhHNr6zq+b90IHBOEdeO0eFcE+w1veMPm1a9+9eZP//RPN8LQX//1Xz8ZcoIewGWgCfVjHvOYzb/+679O0QIE4PM+7/M2v/7rv7751V/91Unw73Of+0ye2h//8R9vHv3oR0+eG4NAUT/zMz9zCqNabvjWb/3WSWEQBD8Ig81a17rWtaa2eH1VOS996UsncMe+R688HcAwnPNFHAaCEDkiazxmpJR8fcM3fMPmUz/1UyfSmIiRCFRAO21HQskQgEUkyZvnyCm5I58Av25WBtKIL3JBTv/sz/5sMgzKDOG8xjWusbna1a521iIqxwRh/+qXCEKWCvz/K7/yK5vf+q3f2nzAB3zAhCEPeMADJk8eQbje9a63edrTnjY5LHAMURztXVvbsshoHC5O1lOf+tRJzmDZn//5n28+6IM+aKrDDntzjqB+zMd8zOKek7X1H9/35iNwTBAOQCoi2H571Yp39eVf/uWTYPP6eXMiBsAUkP/+7//+5qKLLprCczx+ygfIEQTK96Ef+qGbT/qkT5oiCK985SsnL++BD3zg5vd+7/cmsvCwhz1sWi7A5oVU7dzmOT7xiU/cvOY1r5mURZ0iC+/yLu8yERD1fsEXfMFELI7Dr3ub9E4Qsgdhb6Xt7ykRAB4doEYAyVCWBixFZUe4TXuWGrJ8IDzMuPPILHM94QlP2FznOtc5tQyGYCKwPlnL/qVf+qVJphFRkQpGQyRMGQgHWf+0T/u0CbzP1ueYIOxv5BMtSgQha/5/+Id/uHnsYx874Y1lBvP/N3/zN5uf+7mf23z2Z3/2hG8iTqKisGXpzZBtLQxBIXfKQWDh4ate9aqJiHCSyDnH6Ku+6qsmZ0fkVcTM/ce4tm2Ed79+TBB2H7M3eyKGgwEnyMKxgBdg8u78zeO7zW1uMxltnhgvH4j/8z//8wTIAPeSSy6ZhJ1RB+yf//mfv/nN3/zNzQte8IIpooAkUBZgjLXf//73n0JuNmZRpt/+7d/e/MZv/MZEKj7ncz5nij6o3/1CyNaZlb/rGuEBDNE5UUTm2d4ShIwHdTbX3L1uSQbI2R3veMeJWMpp8tM//dObO9zhDpt3f/d3n2Qpb7yILCAIZATA29gIgBEI1/zvzYw8o7/uf8hDHrL55V/+5YlkXvva1572zpBFcvyd3/mdm4svvngiulmHPhuTfUwQDmbUa64HcgM/ODeiVZyfW93qVhPO8OwRZLjF0bEZO3lb9toS8laXOTg5yMDzn//8ieBqB50jd0iuJQ6kIfuxjnFtryM//9wxQTiAMY1gC8PavAOAeVVJ+sGgAG8G2m9G/Rd+4Rcmz14oV+TAxioK4N16r9HZAIclIwhe3/qMz/iMCdRvfvObb2yS+4iP+IgJtL/u675u8xVf8RWTAr/4xS/eYPyU9qpXverE7nl4ohM2k1mOSDjuWJl2m/gaJXrhC184LfckD8JuJR3M3bx/pFHYFekjWwy8fQGWECRxYsyRh5oYhcEH9MipKMRznvOciUxaZvA9sCWL9d18hJccvdu7vdsE0Oq92c1uNpERy2S3vOUtp7pH73yfKTlDEOzB+Jqv+ZrjTYr7ELFEEIwnmbe8ZBnr0ksvnTx20QQE9EEPetAU3hd9yrJWf6NnbTP6JsVsTrT8BddEU5EBjpLNs9e85jU33/M93zPhJ5z8oi/6ojd7m2ht3cf3LY/AMUE4AAmJgFMqEQGKA6goFBbs9SsevIiAUN1Hf/RHT2u/lhooJE8QoUAMvNEghCvawPAjCLw0AG6JgLIgIQwDZm2JAZEQNfBjVzrSoA7sn1IxEkDcut3a178OYFjOqSIqQUD4EARRnrMVQbBR7JnPfOYkb7x37bPLnCwgMKICvKx73vOep5YYGHDe1wUXXDBFnUSjbDjUF+FikS5ElPzkTZdsBnvKU54yyROS6T5hZW8yqI/MZv3ZpFcv8EyNzzFB2J+61SWG5NhgqGHTd33Xd00EFHbc4x73mCJGL3/5yye5s/QkguCzn02qWV6oS1tkGybCThE78kx+Rcvs8RIZRYSTjfZMydr+RvpoPX1MEA5wvnhnGDeCcKc73WnzCZ/wCdO63f3ud78pMxW2HUPz8z//81P4zOYbXpg1PIoHcCnFLW5xi4k1IxGWIwB9XiUDhp67973vvbnJTW4yEQlA/ru/+7vTRkREwlqdj42L1qgRjniFx4q0+6QnSmScEQTet5D7mfKQe4uBOABFEnwsJ+WVVhEpRt4ZK7e+9a0nUhnDzcsG7jbQIhJemyVPIlqiD6JQ5Bf4B/ARg5zXgpCSacbjGc94xhRRQDJExkQY9rMGvfus/N8Tx0sM+xm9/3m2G2kyBlMQSZFOjgu8efCDHzxhmcimzYk2tYogZflyV50IOclbEzkrhZzd7W53m2QLRlpWtR/LRtkf/dEfnRwlDhHHh9wdv769fxnoJRwThAMcU6ApYuB1MBsMMV/G3tJA1usoj/ssQwgTY98iDb7npYkUUEobDwG7NyKEjPMqkfsQEWuAlEY9IgTAHMNmAPwvhKwejBv7R1Dmzh44wCE4Z4vqBME8C+HvCoYHNUDaYz7teSFDeZ1WrgIbt7TNvhdG21IXsPdDHnj75IO82acAWJENoE+mGHzfkTOGIfLGi7MEkYPDkKR8LJuJWu1nF/t+xuaYIOxn9K5MtIITOR8BjlhW8MPxYJA5NHDK0gOyKSKVJYZddSIEIZEnrSGrlkvhGfxCYBFgZJVjhZhwntRt+dTnbMnewYz84SzlFEGIZ7vr5O63WxGO/ZZzGJ6PERH+tdHLWIoo+MGuc9hINv9Qguz8zXvtciAgDu5PXnIhYPsI8lEuIPexwRGAxwhQap8sJVCozGleXTvKEYQzIS8jXcjcGlthVwTBq6RnWl8iAwFTsuFv8mLuGXHG31wn173rmfOajIac6YdrPMA8k82GudfzNsH6TT5dr+/Lk7FkcjwbEYR4vseJkvaHgnVpqGZRNL+IpciTJSgbEsmB77015W94t18Pvi7jqV/5SKhyRULl70BkEVhRBPJd5Xw/bzF0nT8TODOarbNV75zkTAQh750GSPJK1Aj88upTWF4FhAzyXGWj66kjALxkvDJ4tQ31efXOAfao7m3t3aZuS+NTr1Xh26XO3s8lErc0tr0f2+6t12sbKkHZNjZz/azAMzdG1Qhuq2c0B3N1py9d5lJHZK8/n//zNoD1T6SM19TrXyIM2+R/SX63jcOSzvV6QwD6OEe/+vz3svdDipbkf025o+cTHZE0ytJK0ovvMje76siu87GL3m/Tz6W6e593qVe5c3WHPATvo0tLmNTvqfjRcWVOj1O+3zXdcqIF1aDGhtTx2QUfqv7VckfljXRqpD+judrW117faIwj80uvd9Y21v6M7GfFgozzNMZOcwR2PTyTAgMmdaJqYSODrvF9AOc8i9QTj2QbSPQc4NuEoV7vwrStrl1BIAK2TcGrIFdjVduTSexj6ftdIwBd2EfCX4Vm7vpexqOP/5ziLSnSWsPVywjx7YY/49xlrgNa0rfWcj1jRz/PRnhzv4AcmRkRsV0I2Ry4j76PTlfZm3t+Tr+7rO+qS9tIyBLhGV0zL3a2i+qIqo1wove3GoQ+1rsa1jW6cTrK7PXuOg8Vy0fjsaZfIx33XX0TZlRONXy13fX7YOVaPVsiBKP53wWPqq52TKj2cpcxqzifMespp1NexbORDakyPCIwc7LS7xWJjN6feN3rXncy6+FhaX7nUJ8KJr7PRhIFJGNbr7hX6P+6w7UCtGvCRHWi6ru4+T5gndzyyU5Y25e/e3tGr98Y7Lz+tRclGQniWsOtT5nsUVv7mI+Uo4/x2tM3+1h0wU65VTGr1zAif3PGvbc7/xv37JROmt4KCnNAlbamr/Hoc38FpNRRZSKyJhxuScY18kyWIgvKzsFXvs+BSNEHy0Uyy7nmzZNOPuZkoBOAEL2McwxaP3RpFwCbk/8+BrXuauhHz4/6M2fodmlrn+9uZOYM3ajuhKN/5Ed+ZNq7IyTtp5Oe9LvLa9XFpXbtAvxrCE6XiSUCsdbwLxmqbiDr/xVn+1ws9buWUXHLM8GKUei/9jVlkLXMRb7zuxrG3uY8o7wRtlVsjw0ZjXOW4yIzSw7tnL2rba74mfqWIpRZ/k2Etc53yqqyWesazc9aWxQZrLoL80697XbZZZedtFs0Z027aF0ya42VNYUgZPNKDvTok827UnHWxUUo8swICJQTJc9E1/vqYGXNSRtzMM22wRoZnLWGbr+gsASmc2VXAB8RiRFY5L3lbcq9ZESiHBGaELVuYNaMSYS6z2MlRyGNkb0qpKPnK/gFdOqBLksEwX2JlEWGQjBCELQ1yV6q4a7LItoqL4CypBfu8zua77mxCLiFrM4Z2DkyuWYeEoqs90b2O+CMIiajOuaMdNq/F0PXMWQ0ZkuybX5llvSOfE6k7Hoykv0OvqljKXKyZtz7PaO2jOZGe6qDlHLWpEevRrLPQTc4/o8OVXnoxlw5ZL2Sq3i4XVfyvTKUGUyqB4alP7U9lfCnLanP/7A+fcvvjJ1n1VvT2aeOvHpb5XxpfKueze1nGNmNObnSDuVkHOYcam+nsbcZ65pwqs6NfUD+Z1cR4Eoq6rhmbtOuKssZt0qA6nfaa+OyjaGTE5U9CHXCMtExFF3Y4+2MjP0IHGo5FYQq4FdAyP1dqNXXQSxlpE0VZGs5va7KLCsrHRnfbrjmCEnvQwzuaJxGLHRU91x7qjFfAqzet26E6rjUeR3dNyJac9/N9b3fn0hCVeLetzmju0vdI4DOfHWZ7CCW+jMmSZQ0lwehj91oLOq81Ouj+V7q5zZjNdKL1Fc9GvVWgJxrx37asq2tI51Y+q62kYF43vOeNy37ANujsqO9ynbHrioXnUBt0/nIdp/H1FHL6157xUZ/J+Qcg3OlNeoTJ6bbQ9SrAa97BjoGVn2PHCbqVzHJd+oPTtR6ajvzfcf1GjXIWFRnquqheqMvcxGEGpmsfYqtqViRMmLka5Sij0cdg4xh5r+SktF8dnysY5s5S9/ye44g+N6GZ2+rTDo0Ou55BHBdWDMgFYACHvWa73KqYI0iqEMDwva7oejAVo1yriUs7Fpdt6lC0cE97LZOaGWL3XOoQhPBquCTsUr79TevhwV081vZCd908rJkqCNMYaCVZfu7MsnUVT3sKnxpe8arLrNEmAIYIyHaTzKUEah1wFoyTB249musOinpxKTXVwmCKBmCsKa9uxjGERnaTx0VUANQ6vC9uezGIbIyR4J36cuZvJde1U2K+xmzM9nug64r2BCcyYbzionVqw1ujfBwyQ7Ec48OKqdiQ5fjOaLSDWUfj46T+b/r/lxbe/m1vKW65+RnpJ9zc1jbetDzfFB1jsazYvJsHoTRgIeVVmFj4IU7EiZ2zetTwiHe708YNd9LJyw/AMFNWCXl6nQMXgTQwTM64d6cUR8j2I2qPACuJa+AsqIoWWvOfgd1eWXGKXbVqI5Ci/qYPud3jiQN2PofMfA6YvrjN6XxPrr+6EOe7+E5bfDKmnCaTVbaJtRTJysAb2yFf/xmqHI+esBAWdpjHrzyllCbOepKrHzfGxfjmyNWlR/ikXIzlqMxOlMKcND1VDm/kmL8r2dUSULAQarrs50oae04RBarATB/5Czr9HnVMbkPkpkuhHFtXWfrvuig1xxlMOUBna+fjIX+10hwCGGuwwR4laWLOGy+C2YHb6P/CUVnyaCSzOD2iAhUYz5nV3aZrznDu2Tsqh7XNlaDv1dSuURORk7ILn3tTkonRruUtbavtc07JUqKgMQ7JUwxwoyVhC0EzmYhedpl/4uRca/Xw+w0loEuAiULYDZmKSMefjouzTCjJTNhzdTlOwfNOHrWGo7cAxISycstAyEDh4w4QMm74TodY8poyjvvR3Yu7a5g2AUoIJsNmjHUjLg26aO6pCR1VoJERRlk6Y8f/vCHT8lrktFOyuWcQBZl1F8pmZECufGlSP6Wb/mWU2viUVJ9Nr4yLeqvg1MkuFGO0yIjrLKMybInxbIMeQGAjIVkJz7GHLA6u0H7lKMfTm1z3kMVyLmw2y5CelTvrSRWHgTjdjoiCAc9PjEIkbOAqPbTO//nGhmjN9UROCpkMImSzneCkDwo5o2u24DuePjkUcl8wk9J2GAZhy0yALclHoJpsDzRXzIBwz0D32BmIrmJAh90dPGgdeG4vN1HYCeCkCWCePfSuxJCxlkiC4aKkeJhSaohLWeOofUd4ZN+mDACWUk3eL/ywMsdL30mb9sxssrxnexdvHxZ2hh/ZCCGzbGjyrRpjJCLIPiNgAA/gJfT7YA5AZYe1jqlVMXIg9zi8ThiROswVsOgPGeU6y/vXJYvr1VpPyLg6F1ERmpQQCvjl8Nw9EXqWrnrtU+2RJnv9MlHHciK7IhO02OYkQUbRRjuythlzpOURB+Upw5t8OqdtLfJoOh/mcYkFFG2/gKKJFWSiQzBScpnZ0RokzG3livXvrS6IW8BiqNiMHZXheUnzgWCkM1c3sJI8i7yRVbJND2S257OZvlhbrPWQY/vfss7Jgj/M4KIH0wWFYKl8EK67UQunX5oTl17/OMfP6Vlp/scCroOt52twfGQpVUUwXHfcIucSMXNuXAOgjo4LA6AU4Z712ym3O9cHz9/5kZgJ4KQTSfxQggRYWM0nazlHAHAYxMX8uA1MCcLYrFSDktiAnwYaQYbC33EIx6x+fZv//bN1a9+9cmYYqcMm3KBlvt41Y6cRRAkpwEGmKzrlAE5cbwtAZeWWKav7MJ0KBKSQBGwaOcdMOI5B8HhM3WXbQ8z1eUMjJlRRQYYaSmVpUCmlMZAmlvRCwycQeHpM9ja/dKXvnSqnzLZbbqy+5QAACAASURBVI0k8HYolciGXPcf//EfP6VE9qwxQEAYfX2h4Pqrn04wQ66QLic6IggUGxHxt7bIWW6skBX3mStkyJINEqA8BEuUQbnSmCJmDocyT0iFcTH+fudNk/MVAI4qQUjUz3zz9MghIuqYaMBP5mSmk29f2tyb3vSmE4k/alk3jwnC/xgNuszYcwRgI0fj+te//nSN7sINmAOfnaXACUAWyAcMgQmM/9WudrXJOYFDj3nMYyYcgl/GOa8II5pwGB7BqNHbCmfOlB3XdDpGYE8EIQ0JQ3WyIMMEbAghlulkOcfCAlb3Pfe5z52MpdSclgWQCSTA9w7/YDif/exnT4LmeFEer7C8g4akFRZxsDYvxzxhVifjjQAgLrxuP/7GannswuQO8+DtawfjrQ4EQR5xn8/6rM+aDGt/rTOh2b6upXyGXx0A1zIAJo0kOOVOX7K3gvFGjpAiwMz4i4AgNIk8UDj36Yd89q4jOhTV8dH6KjLjlTr1Gq+c0IeoiADwELTXc8bI0gNlBQLGBEGiyAy/dKWOKTYX2sRI8BwRNH0SORBRMX7alKNWo/xHZV36oJUlS0Z+H6U9CMYh+2WQBcf1khvE3NyTEZE+ushgiGrldEZ9PSoRo/OVINT14rohlZ7CWku0DjxyJofX2ckCB8oBcCKuyCDMhknmmrNC/z3rMDikARFAJLLkkA2JcMWHc5FI4/mKDweNN4elvD0RhGxOoZRC2bx7UQFG2zUGXe7u+973vpMRJ5QIAyMFlAggoybEL9pgSUAonDeLtbqHENZ824RTGIv3m+Q1nkccRCmQirvc5S5TBENkgqFFAi688MKJjGgbA+1EMksCDKUfSnL729/+1NkJWT5RX5ZUEjlJ3gcAe9e73nXy5h1eA2SRI2REffrnGWWLrDDE/r7zne88kQmRAVER+xWUxVuntK997WunJRXLBw4qcUAJY46xC/+LwlBc7RVpUbb+IzzGK5vPjD/vQbvs8RDZMKaWQACKzZDaaE4Ahbqc4CfqoCxRBP0XStQvZCKgcFQMxkErWCUITnM0j2fzNMdd+pc3Vcwh+TSHjAaZcPKjuScP9geJOCEI+RwVwD+fCUL2AtBrWMIhYugZcNFKyaPosWgAQ87hgDOukwV7okRe4aLvLEUii45yJveijxwg+AdzOVScHtEKesB5gbeJLu51s98uMn1875kZgdUEoW92yuZEoMKzdboXb5wBzrIDQyacxRsGqq9//eunXvFMeai825vd7GbTHgOCimSINhBGG+sYT2tmBBOYWZ9PchpkgzekfGXxwnnzfguL88ZFKhhQ5SMLTlS058GHoPsohwcFYEQtGF71aU/dQJjNk4wvhXnc4x43edeMPI+dcgFfnhlF0YdEEBh/QExpKRaFtQcAkclhSsoX5jWWlj0orD4jIggCgsFQP+lJT5r6R0ktFzzxiU+cjLqoBUOAIBlDQIEgmBN1668jnxEM5M3yg3uQGmPoPvcAB2OhT0KKjqq2nGIstPF8JgghCSIIZ/s0x7XwkKURoE0+QmDJAlKNhIpIkVnhaPKPmGfz4tp6zvZ95yNBiFMQucwbSMHfe93rXhNZgIUcskRJ4QkMg41kgvNhWcJ9nBn4ZKPygx70oAkLYZ6NzBytLI9yHmAJPIMTwcrjjYpnWxMOtv6dCUJC7gRLaBqLtIEFUWDYGD2CR+AIKCHGXDFTLJPRIliYrA1RQpp+M0I2KfJgRAmwYeVY4/ecDTXC4Hb4C3vFQyeYnvWGhPq8C20PQDbkiVAQasZU+9RF6K23C50x5Iw8480oijS4LyGzvA4UwGSosW/kQPiOF8m4ikbw0BEEYX79BMA+2mipQYSAd4YwWP4wVnkzgJIbQ8pqWQWh8oy14uwsjweI6BhzH2876JtIA0KFdPnfJ8ZBe5ECEY+sSQs56utFF100gYdxAjDejgAI5lZYEQD4xJM8KpvWDlZN/m8slYsgIGJn8zTHtf1LnoNEw8gYIkiuyIX5ZBBczx4gsnnU3lg5HwlCXmOsJNB8c3qQPRgFQ+yBgg3mVcQz+5lgJacD3pAFRp+ew1l4+7CHPWwiFeSFQ/SABzxgWtLkcHHK3Auv3JO9CcGKtfJ5fN/hHoGJIOTVuLmmhqEmVEkwEAOhaWvWBMS+A8sD7gU0DK7Nh57h0doUaPOcdTDRAZv9MFKGUDjcjllLCMgAj5YhtgZvoyNjTUBtlLHJJilzKYKoBINPIW51q1tNewyE0LSFIgjn+62NvHxGWXsY8BwPKyoRD/4pT3nK5o53vOOp/AgxtDxG/fbmAALCQOuzpQKbvKzhMRw2QQrX6qs1fVEJhpih5a1h5coQLZAW1oYgSk2Rc765VyYRHkbca4pZ9mDAGXRRF4ruYzy12R4OY2EcKX2InL5bRuAxmI/63rNojwiE8rTXHAEB4ICkiawk6VMSLB328OGcLI++3yb3VR/qJsXDFkGo69Bdh7MunTA0Q0FHRLAQVvqFsIomPfrRj56MBVKOlPbPUj1nE+YS3RzlQdhljnfpw0GPxV7amWdCArXfnJJPkVcYgQTYRIgAiA4gC5Yd6fOznvWsyZGzh4BTAA/gCDxTNhmh/3BYJILTBW9EmGBTXvdWL8yeI5V76duaudi13F3vX9OGc/2eE1dcccXJGMF4u/k/xsDABmDCEJMYKYYjgy+szyDZEGgDDGPM8DGkfhgxAmfDHEEjgITaNYYtQIwgCNHzzoEVg2nnv02MaY8oAwDkHbsXMUA2RCGSlEj9hLeeY4/tMuiMtE2PQmR5W4H3HQMbgU8oT11Zv0+oXVu03+tEWLUdw8oSnRClQKAYdgRGP+Rd8CygpmQ+lhPU4U0L7bRngDLbUY6MxKir245ihhuo+3gum5GQrgc+8IFTuQEw82Pvgr6KlOR1Rd+bF+00xsYEobFPA1EQzbGHJP3clRgsKWPatk259lJnr7fKcPVuImd5/Sttqd5YXX/3vTHKeBp3yzSjJZfehrXGpNad9vQxqGVVA+HvAHZ9ppep3XlNlzzmjRYGAJmlC5bhUtZortYuM+06f9vkIfI+mkc6BnfyZlDeuqn3pj3ZUzSKhu1lrg6in5mn2t46HiM5jjwmkgAzET3zxyGBP5YKbne7200YyKHjgCEBsMSeL/PNQUIO1IEUcGTsT+Jw5a0Iyw8wwVKtKKgogvpFYJWXpeC+Z6XL39xYdTnbNqZdT5dkp5a9rdw1Mrj2nl37tLbcM3nfRBACNF05+sDGUEZRqzAkkQ+h4W3HA0mI3u+ADqFjhJOopQ9kvJ56aBSG6/kk8IhB1yZkxb0182A86DmB8Ix6KU76UUN2ed49S0Ygh4QoT/uUpxztck00wd+IijGhoAFz46hf2QDomroor4/7sxciZSpHFCSvobnPNeSAsiYBUl5FyquZ2pJEVp5JuxG0bKr0tzkxh9pg6WavChWZyjjOGbxqmLvgV1Cs81HvWwvovR8dcLeBSCXIlr6MnyWYOdkYgXv/rst9JRaj8Ru1uY5vJa2dJPSxrf3p47nXOZ+bv4MEtBFh0V4RS96yZZ9EIecAejTXo3LX9GeuPZ7dVuYc+ZuTnREepx5lwYFsIIdFnB1LuxyrLAO4LxuwYQbcgsewAX66BpNENJFHBELEF67BWJFGRBI+wBv3IwxZuhjN9Zzudd3vWFH1YVTuyF51zOi40QnMGvzp+jFq10hnlmTjIHXidJZ14vLLLz8JLMKmR8BRCcQS0Nb7MjiMTX2HPuzd79F7s5UZxmBrU54DgvGos56eSY8xr17hnJKmng6qI2Cdm/yUnd+pN+Pg//Qhk1iXaUaGLuOf+UjZPYIzZwASbsz1ECl19b6G1HXDEwI4ynmwDfQqEegKv6sgzxnEWu4IJEbg3MuKzGQMeiShl1HJoxAugiCCUOdhybBWUBkB4RIAdhJS5a5eq6RijgCsAdp+z5yhHcnvrnO86/197GIYlYMgiCAguX1HfdeLbQRuLbgHR3p5c7LQ5XXtGI7kV1mZ5/RPv8lm8KPKd3A0BME97uVMBJfSnjpeqaNGVOt9kcEqixWTt/Wx37sNY0ZjMZLZioFL476LDO4iF2vI0i51n417J4KQ1wZrODmCVYFyTuir0atA278PyFbD3xldNdwBA+2L8c/bBJUZ1nBovPFqDCug5rkqlKM6oyBL4dREVKJAAau6zl/7nOx0te3K97w+RgEzzpW0uZ7c6OakAmX6kjSr2bPgvko0MjbJt556QmT8n/YkcrFNKOdY/hwgr2HfFfiqzFUl73PaZXNkVOucLoFQladabnRCqNXH5r7MWeZkGznpJLISqoxNH6PIZ+Yn49MBeckIbpvHpet9bLcB+K51dcDf1pZaf/TA3GQPQvKQVGxZavMI10bfjWR3zmDM3TtHaEdyXsehE0HXIo/BGGXUM2I8k2WIlJ9nIlPB05SXV7kjz3EeK/nMmIeIVEOcNqf83t+RLOWean+qzHd5mLNDS3Ja8XJX+dwLmZyrY67t+2nT6Xz2xKtf/eqT1pzsDcgygAqTXIhRy/nThEtIKkAU4XFPyECE0jUhKb8T8gs4Vq+6GqsIBSFVD0V3PcJZFcFAZz3d9wmPqy/l6EeMXxW4AKzryqjMOILEC3GfduS+GrlQn37FuCdKoizXKsGKwWHghebU4dkQn8rgc/a6vlPA9L32K8si6nBd+Rn3GKh8X4Eq0ZxKngIQ2YwYYMhG0K4c1Xim/jmArYQn9SQStCTUmSvPey6vTlUZc0/KiuHM72q0K2ClPPd5NgQv95gHdQlXZ9zq0piQqo99G3k1tI5HnomcZ1zIhvsC1u4LkNe2+z7zH4Lmeq8jgFpzdVQj67r2xWMckdxqPHcFwLUAvc3QR1bn2jJ6PphTsSTj5nVem37ruQORmX7wmLKjUyHRacdce6qxq2MwGo/qKFUZ7PeOjGudyzzb76tGteJdlafqVMSYd/0NRlbCEUfG2GXJNDgaHYruqzv6WeV/1M/ahxrhir7md/BsNIbKqFHWJcNfx6gS89Hek+Be14U+F7UPFVtHsjoiLCNd3IuBr7JY25Hv15aZ8RuN46QHl1122UlrUdadqmIQqABo1v0TaajKVaMBMbwJc1WDH+9WHZWl1ihDFDZebIhHzQSXAQ5Q1NPHKltOWypDjhBU4x2DnslM+TnzgbGIEkX50s4Ymjpuyk40IAQm97uWvmePRtpZ+1XBr5KvAGr60Z/NvPgdIKggHKOa8dVu5YcM+N5YxzhVJY4QRpAqyRoJY21bxmfumS7UkZuMd4CjEoLcUwlHVeZRmXUeK0HQz8h65rQCc+oPYZPHw3feisknczwytmlrxnM0NnkueTFGRiptrsDXxyTkvcreCKhy337Apfa1AtaSQazyuARi1ej1eiKfMWoZe46Ot5zsqYmRSf+iD5HvtMP1vpw3B7JVLmt/R6AfHHBfyFqcA3XHiYgxdl/6lbJTX/Q2OOz/7KGKnMRg18O29NWGZRgWnMw4ROYTVXRv2hkd70Y1+hinqZJe19TTc8hUrNdu7XOfens677xarl7j4if9rGOROa2OQMhwxQB/V/KX53JmhOvGJf0xhrEN6UfaX3Exc9t1vupZ5jPOXGxn9DJtq6RIO+IsVrmME1pJmee0LbKin5kfdWRuKj5EVnJftXnpk+fkQrE5ng1cnQdhzghkQA20wcj71vmdI2Wr9x/ykQ5WIx7hjLeb5wxEZ8Rhs1VxYyTrYIxAMEYy1zJYddKjIFUQK3iEpATwM6l+h9RUUhAWHsbdgXst6zu+78yPQGTMHEpmZe69iXNU57Aa4OhKJYSVIB30aI8McP2u6+S2+t0vWmmJQRZS0beQ6E4uRlhQjUqI05yXOSIrI6IUTIgBzv8dZyrh7pgVEjMiVbUflZCFTIR4VGejEpAeMaxLnGlrxb9gXcYndXYvv+pJMDtGVv9CxENyYhCD5bWvub/3b6Rzc+MxJzvVIQtW93Gufc74VIIVEpA57A6K68H6EJjquHVnF0EISesOSzaVZ3wT2azOapVdbdHm6kDVCGzqDvEJgVEugm1j6iSP0ysMe/xEGDOQCsw58/GEKiutGxZj7KsQdKOdpkVxDGBOaQwAdAHNIISwpEz313urQOX7tCWTE6HIYMbAV48hQhJliBLqv7bkbYLqsYRwHFXjskdxOdKPnYsEoZOAERScDhldCzmjuruBSh/oqk2KNo5KVDbX7k4QKqgHZ+baV8vMPUt9qWWPCEslAHOEZk0/umLNGaNKUuYijH0M4qDVqGsMYtpcnbq+XBNHMZjZiVL+jyM5Aok+jnNAEh2dG+sq751QhBxXAlfv7/PQn691x9Z08lfbXcl4JRjV5s31s45/l+f83+3iSNb6XHQnfopK7IcgKFCyIq/DeS9W8iHv5/s/4ZIInAYSFnsdvJ+bpEp18nXK+/r2PzioidBY+pBoSMgjYRXPyFzIUxAG0Y6E4qsRjyFOaEYbElrzzrC2VuZqjVn98iggIl4p1GYJnCJ0BlXeg/RBDgJ9lTgpoaC8KmjpRiISedCjALKSyR6JpZ0O8D3SVvgQN/5cIwgjb2kkj6dDRrcRkbUEoooLQi4pGoJAt6pB2iZW1Th0L3AJpCtQV3zoz4xAfM74RM4qblbnopY9R1g4R/Fcc7/xgGWJLIQgKKPujcnY943WNfRejX7GLrgbJzD1VmKRNyZiC7SBQ5nlhFGfKwlZmse9yEzKmyONsRe9XV13lgjLaI5GBCZtyO8uW7XONYQpRHrU9i5PIzk+FcHYD0FgGB1TzHhLeiSJj3fDddI5AjIFOjMga7cEwQ5wgiGDW9a/CVUMvSRKQlKyLErKgWwkS6JEH0kL6z1dxld9kiNF0BGKpBX1bq/vGWWG3ydrMxIrOdtBko8IAoIjdbGzDRh5a5rJ+EgBolxSKNsQ5T6pR5EF2cikdBaa8V6w+yV3cj2HQemXg61kRzQupwN8t4Hh8fW9jcC5RBBCZHtYtwJlZPN0yOg2grAXQ8AoWmKw7FNPZt0229Vjq32di1RUwz4iAr6roeM54lDrGhmRNeM+GkdYKmW8lOscnWw2V56/a54UTpLkaDWHAZxktB3glGis7Inuk/gOfiZsnY3kcE299hZIgy8dvr85RQ6U4zwibaKpecMkZcNm/ZACP9kYq+GuBGfNXK4xntVAd89/jrjl+xCiHkEYta0b+zm5r22OsZ4jPHNkpfapkoNRu3odo74k8r5TBKFWzOjzpGXj4okzeIyuLF4ETI5ugscAEzqZCwmtDIEEjeEnVLIg8tCl//ScI6LlEM9GR3UQZBm+GF+GmHDx7hEHmRCznuYZB0Mx8s4dUK42S11MwLPsgETIXujcAfd4zj1OpjRYohvarXwkQz88K+OY3+6TuljWQdENREV/JH/ynOyJwpwyEfou6ZgRB4cvyYOvLwkDqbMuW2xThOPrZ34EzgWCkOgZ4i0CB7Tl3Sf/5BixBvY5rAmQnA657B7byKPaZYaVBzue//znn9qDsERwOviOjPEIoOt3c57ZyLusUYElwN5GCnp0wf+JCigXLopoOhKegYebiVzKmirLolM8bUJTF0dHpkVvfnDQ/DiDxW8ZWc09nJc6Xz2y4zLoSZAEA+GxzbruVR6HSOp2TpO2kCuJmiRYcuquTLiIiv+RFSfHSjzmJF5Egq3gnLEfc/I3MuqZj0r4lmQotqxGmpaIWvXwRwRjbu46Aa3/d7nIUv2oD0v92nb/Nnmv7ci9p5bd10YQPFgJgh25BERed2k2c0CRic1hLzZzMcKMM2PrFMJs2iHMBFFaYQbUAUSyfjHuBJFgIxOygSXsL32oVMaMNIIA5Ahc9jMAt6RyllbYDl7PM/5IgT5gsZ4VyXD6ozKlSHYmhPSihJhCOLBJ/RSAcvlxlgES5Ht9krOcAolgICoUz33KQFSe97znTWOhfe416E5PRF70zw9yFVbaw4K7gOTxvad3BI4qQYjeBsDILl0UeePdIbkAWapwBFaUjvx6GyA7uU/vyO6/dH3ksSIIMikmgrDN4O6/5rNbQt/Vbgwk8TLHCIL+O1sD/jD4zmEQYUkGWxFSh7RlzOCx82U8B2c5N7CXE2jzp3TMcBTWWzZ1JLToKPw3B5deeuk0IFmidXw8B4xNyOmnMFlkFUlVLwdQJkfYibBKC2+51iF42Y1/rs/j2ZWi5dpXRxAqa8tuS0zSIUpZEsAKsVZC4Jr7HB5kn4IDihwJLZLAKDOkTiAUDvM8oGK0PcP4WrawjEBQvFZmSYJxRjh47JQAm73HPe4xlUmICCPigsk6zpZXjzUjDYwzYuHQEh6SNmGyIhMOIRGeFC0QPeD586wYb0rlvXfAKTc5QiCCQLmsdwIjLBjJoYiYM7KjrerGogGuKAQleepTnzqdiaDPxgnByXpffh9mgTlf23ZUCUJCufFseYxAH9mlC5bQyDQZdtAYubU8ePe7330i8KcjgnDQMnS+EoTsHchOduNgo6b5hYfOfXGNYWeQRTfhKgNuORWu+e1/eAT/YKq/YanIgIiC83VgE8KQTefusZyAaCIjliEc9oVkwkS5KMiSMuGc9MycLcTCIVHwEAmFwYlyIAownyOZHDOjbLsHLT/H5c2PwGqCoIi8EkEQMUmhISwRKyUYQEb+bpMqhO/wJIZTZCB7EnjVWCdP2m8EAaNltJEIBAHDtAwhQpETGp2CSOAQDoqBBCAG9773vad1fcsS1r60Udt47HnnVB3CWdqmTdg0giICAQjdJyznO2thWDgApTzaD0SRH8ciUyD7JAiwe0QdPC8ygcgIp2mLZ5EQXg0lEj5DFBxJrS+nXiMpr/4cBTA+X5WphuEQWcB7FF5zrJE/ZMFpoMDfQWBILkD2QZ4tfdEBx5hfeOGFp44jP+xz3gkCT3S/yxaHvc/al8hjCIJIpiVaG7xFTWEMJ0eEFL7CQThsmQFmwSsOFVwU8WS04RZD7QRIhIABt9+Kp8+hE2mF54w97CMvZAoWM/Rw2f4xzpBy4LEIA9zkdMFlZIJ9sBwNV5Vv+dYHtnMW4bV5zfv9R2E+zsU27okgGAjCiF1ip4QF6FhuEIoSPeCRM4YmmtDxui0dMK48bEcUM9RCXO5xkiGPW9jTOpbIgbPrhe6FvaxR8XgcResTcEMgHvvYx26cNoYg+PQdzE4ntNyBsWK5FIgQEkpK4KPtiIp7GHCkQzQgITCRAKeiWRIh4JYuRC+e8IQnTH1HLIRplSkfPMYMfJ0wh1hQQj/6TIkpb3b45i2M41Da4VWxo0oQjGjkjDEQ8aNvTgSlVwAeOQDoF1xwwaTTdOFhD3vYRIKTzObwzsz/HIpUlxjOF4Kg3xVDzCH8hHcinkgBI22ZgaFm0JEJmGpuLREw0CILDD/8RCyU69h3H06fzeeiBIk8cMDsW1CH/Vae41QhE5w81zh6IsUw3f4yBIHTJ2KqDZw/e15EFDiZll05YogL4lBfLT/GxbOnfTsRhJqVSZMJJKMoLI+pAp8cHYwh8kh4zoQM6ySwvC/GnMAQVFEIAuBvbJFwhxgwrl4JJMR2/gt1hQQgCBgxg+63cL/lAp58ThpTN6GjNO6xlPCkJz1p2nvge+3AmvWLkHpWG+95z3tOJCEs1r4IfQWqwBTz1h/LGI985CMnkkF59EW0gEJQMiE463cIg/FR1/3ud78p8qBtITOnXik5ceLsScJxzYsjcFQJgnbzyuJRP+MZz5h07KEPfehE2gEyYKejSAFyDrzveMc7ntpVftgBWh/pvGgdHDlfCEJNgpMokOVZSwc8eh4/nIGbnBrG3Pq+iAIDDJt8D1ORQrjFKRJZ5dwpX1k2GoqKwkc4apnCXgFyA8s4SBwmciYybP+W+ywzwHlvi5EvBCH7FTiKiIa6LbtyMpEJjpY31WpuncMuf+cydO5EEHpIizCKBNhsQikxUn9jjzZCRXgIB2Np44vJ5pUwtAQCGUACrne9601CQbAoOiPOKxB9EJrHgO0lQASEskQTRCnufOc7T3Vhq4TYM7x3TNgaHCLh4w0KjFUE4BGPeMQUCrMEoGyMF0EgsBiuNTIAqh5t52nplzU5jFw/AavohUgDFuwH+CIYSIK+COdh3+5Tj809IgiWNZCPY8E/WqqVHb5kCMAifkdhDusre7xIy3yIvLCyvT2IOR1iPBgIHied0N+jsAasf3Q3uCESeD4s1+l3TWTESPPg7dFyzWvY5o+nb29YXr+GaxwkDphn7BEQyc3+ATJg+df8e3VbtFjEgaPG0UEQOFrG2RJvXp005vZvWWZVJvugbnoC+7zpZk8C3EdOPAezkVLLHjmzJMsn2aR4tFDi3GrtzgShJhUhSAw/44fBY5uEzD02EVo2IIzC9EL0QCeAim1itvYb2AiIOfpYnvDqo48wvA0vNhv6XvkYsYhFQv8MOm9elCCJkdTvHtdq+kqCqJ3WjtUPVICjCAClQnIoAuWhCEiMZ5RhScJ1fyMxCIF7KJboAQKCjPjtmjYgE/qNNRN25IVxQTaWsr2dWyJ27vSmEgRygwgeBYKQdsegkMsYfyDPM8x3vgfu+qWPR2HjbPZEIQg2Qk855M+DaFxdYqBl/oeTljYtFfHKzZ9Ni5wreAqPRApgHEPNKMNxSwSWEUQ5RRDgo/uywVvUybNxbOAcsilC4E0tkQAkREQZznse+bDvgA0QrbLEyibATMQAXlv6VW7IC3yFl0jqUXmL5txBuDfvyWqCkFBlzk3Ie6cBnRjnZFCsrzO61/85e6GGa5P1y3dh/XXndV79S67omro572pmHS55DpQl4pD1U9f7qWT1u4CJ5wKMKTOEKCHanIqW5YGAb81Ulv7Wfqbs9HNNrvdzWfCOYt+OKkGIlxlZjn5El7MZLDqbTW/m6CjsQdDO0RLDUZSxXdpc5zOYA4d47hwexj7YBkeNketeKWTMc3gUxyWRBE6QvxEIS7YcNMurSIQyOFXIAblQRkYk6QAAIABJREFUv6gsByvZZpWb8hj5JFZK9lkRBOXZ98BWuB8JsdSRMxGU7+f4te9dpOH03LuaICTsE0NH8OpZBSY76Y7r7xjUGORqKGsazjDgalzrKWsBs2R46oY6bUk7Q0bUkXpCEubW/NOHkIGqgOlTiE7aGaJQ258+JiWpa9qQExxT/umZ0uNST9cIHGWCcCrxyf8ede3/ZLuLTnUZ9v1RiSDQNcskNkmLzkUHT5csHIZyg2PBPphUowo9EVvFt2yMzlp/lqHyO2X5HYJZca06XPUZ41KJZxzJis9pV9rvmeB5iEfuPyoE9TDIw+low4krrrjiZPUYloxXALKyVc9WIUsqY0JAsLLfIMeQ1vJrbvAQjuQID2jldwStC2u8n3jr8dATQagkJNc6844yVGKQ8qqnn/5kImroNkQhClWXO0IQjEVYcgXsOq4HPcn7Bcr9Pr9rf850fdva12Xe/AqL+m2Joc7jtrLOxvUk04knF/0KIMfDrDodcNb3EUGo4fuDkt0677XM/N3HrrdBm+UASKrlJRzb6/JDdW7SnmpIz/T8Bre7DGbMOlYGh+r9KSOvhKc/NfqZsQz5IEP9TbHqMNX7M9Ydc9PGyGPa2udmNFd97tfO5+mQ1T7nB4FfozJGbZ/TjSqbczK51M7M/TSPb3jDG07aCyB05JPkG32TTwrMe6khBvGSEYD8HWNeFaq/yleFrRvcUaciBLVjEfT6fJYn3L+0UalGKkIc8l0lDF1Ral1hymHQlbGHMHQgqUod8pM+rRX0pUmvwFiFKnNS56aW03dE51qITlX6gwbCCiLKznwcdD3daMzNbQdJ9yVyxAuzvut/b8UELHPP2jZnHubuP0jD08lolfNaf+Z6ZAj7ff6PLLu/v6++rX/RmejJ6P7RdyOdVj/s8aqedfOlDHwj8lH1b0R+lua06tUaHOtljfqzzShuMwDp40j/+3fVGJiTnD6bNvjdCUGNHHe56LJW+zeHxxUTa3nqzibZ6FfH6hoNrm3O/d0O1CXjtbra7+uGudqmivu7koVqd0YyUCM19frcvdvuCdYGFysOZ3nnxH/+53+etBaVV6Eq6+yTVY3EyJh2g10VpgtmN6rdkO5l8vqE1A6PALdOyKi+qmi1v1UQR8I9mshudNRXDz6pkZI+cb1tI4G4EusrG7S2AXXKroBd56ILWVeOvczTqD8jUDuIskcyPAfkVUa77GZ8/bahy8frWNXDHj2/nz6M5nnX8taAVPoWDFgaM9cSlahjkraGoC+Rc/UEwGtEo9Zb5bl+PyKyoiEwzCvU3nJSZvYq1Wdj6JA86+B+ani+6kqV8/zttb6uJ5VApy7t8TMnZ9v6k/GZm+tukCouV9JWjepIbzsmuSdzm351oxUy1mXT//pcl1WrrPhbmdWJ0tbsLesRhvQ9+qVdcUpTd8YpJED9ifL6nShZjJ3vUl8fj5G8jjCxzmnaofyMl9/5f42uKqMS2shoHafoQsbPPflRR9oZ8pR5r/Xn2a7bCGGda+XadG/TKR2alhgyqVHWbR2rQpNGRTDnNt/NCegaRrcNeAOC+R1FnwOZagDr33P1LIFsnbw5I9eVaXTfiMBsm4dt10ftnpuHXlYdu4MwVNva2sF0P3WO+hgQHfWzfzear7oMZxe2e2SM6/K+tt1zsrmN/KWtSwZ4zVjPjdEIAEfjU8lBxnZERudAtuvatvaMdLa2ldHPcc/ev/epZXZnoBrZridxBvYiK2vGr8v6aL5GJGCbnNY+9/Fcg2FVR6oc9mfrnPb7up7NzWs1akvYN5KpyF5vRy+nRhcyNh17t8nVEi6OdDFkRT1zUdleZpbB09cqfzH2Xd8yzp0MZAzmHL4uezVHSjAFYUkOoIkgVAHoSlULnDMudf1oSSBGwJu1ryVQ68pd761tr/eNBHf0XAcK91TwXepPD8kuAUoFxK78/o/ntQYE1hqRWtaS4ZoDo5Es7EIw1vSlgtrSPHfgWQLZNX2tgLEEhqkn86P/ksSYewQhSj2nQ9vkeq1BWUs8en2V2NRr1fPdLxlcMj5zsrqkK2vHLPfFE7UHwb4QBKHOSwVTbY1+d5JSjcWoT2tlv8r0XF+WZH2vc93rrRHd092fJf3cZdzmMGMJ82JQ+5yn/z2iu5aMLsnhCM/XzPuozFF7ugNQdbTbvEqicm0bQVhqhzJO7VEKQcgDS8axC7WCvKLiVRihCq/C2EHsJxsQO/h6hQbY5l3rkaL0MJl66jvZEQivNfZQWDYnJjTl2eyrqIMSdpmoSb0vBts99e2D2hfvG3uHPPsQUm8No3k+mxITIsvBJJWIuCbcWQ/HqVGdbYZzSZBH13YBoDXKtNYIzNW7po4K3rVP+wGfNeOW8usubATBvIcgbGvPkpFYA0L7mcO5sd02bgGatXNTQWpbn/ZCpkb4lO/ojzcyJE6Toh3+zC2VVq8yfVsbjVkai3ptTs779xX05wzsnNwvGaM6d/pb3wbbpqu5XiO7/Zm94lGXqdF4jIhjX7rOc7Udmdfe9zigI5mrRr7Wu6Z/I4KQdq3VmSW93sXA1/Z2e7tNrkbL4VeKaKw97rkKZIyX37IOSuF5tatdbTpbXPpixynL8S5pCTbvPgqMSABXCYYkVzLxjLxGusaYytblnVkGWLIlyTUYVYmUJD7yzq0OCCnKF+7wD+X5Xx0SN0mV7JAl5cmoaG1SW5CTnF4m8Yfsi9ZaCJH6nvzkJ0+grz7Jmkx01rTckwNFJPaQTdG550Ix2ulMCpkbkw1Mn2R0lK1MBkn1+V8yEmmovW8saYgxkNFR3U6q1D/vL8swqexrXvOap+QoSju3jLPG4GUedyEJa8s9l++rYC7ZFTJnbvY6jhWwTue4BawqaI3IcPbDxFhmU/F+Ze109i1l6w/dlxLda450aw6kdwXQvba/z++Zmm+4xVGDuxIOyYQoa6b/OXN+ZK6VHRHWZv1b+yTLgofG0gcWBXMqiYoxDnYnoZEyODpyKLAB8BaukiF4rw0w2X3aKIdCjrtnIzwHtx0PHaOX/AjOZ/CddsB6m+rlVNB+z8LkHNKnDvfKBeHcHf3hwJKL+nab5Ho+UkBXg5w6fFc3bYZ0riWUe5WdbQR7RKz2g0OdRFRZ3SkPQg2DEw6T/MQnPnGaUBkOncplQhh7iTAIhoyGMnkhBgy8Nyak6jT4JtcxpL6XopjA+vGcSWckgXAyE3qWgSVEBFEqUVkYladtBOQ5z3nOdD5CJtaGMgbfpBIOhlh6UBkSZUeUFpSAx0hLp5x2EW7GmkCqR/YvecmlM9XGpB1l8EUTkBUKKrOYMiiAsKdDqmR7pIDS2WqbMTNG/pbm2TgYK9nOtMshUP5HuExYIhP1NcnTIYDHZY5HoBpaBAHYyFS3H8Xc67O7zFElNuoLCSfD0ixLmuM7b2YAVEaBzCFAPkchWU0IgkyKSfu+zXM6UwZ7l7k6iHuldpdC24ZKYwFbGGckQYZFOOlsBGc1yAjLuXMvZ4mBhnPkm1z4O7iTqG2IpHs5Y/DevcqVWZGhdk2yJmQEZsJXOMtG0BvYL1W+PSPSMLMXjLjvOJrOvIG56uSISbjkb06nekSIOFwcMnipjcpyjROn/5wxdof90Fdvt7hX9kjynkMEXZMKn43QHwmfYDP7ZrxgehJOsUnnW3bHnQkCxSIkmB2BYMQZeINK4KwBEjrkwaQ5hZFRlWqTYAKchL1MrPMLsEO7j02A3ciMrL8d/sTzJ7yMqxSeJpYQEmoHHyEMDh/xv2eQFOc4aA+WLPWn3ebOUxAdEOVwcpijowmn+/RH+wgpgWe0tR1BIDiMvzzizil3UJOUz0iLewKmUoVSjAc/+MGbiy++eGqj+9QjUiCSQREIvzKRCmOpPidM6qf/sWLXRWYQCPVQqpyCBkTqa0cHASrHZWwfgRq6FBUyl4jfmTDy21u3fIe2V68PWXUwk/NGkGtRNfLmkB1EXrQO0O6yG3u/bdzP8yEIjGEiCNsIwn7qO8zPOmcmHq7XcB1j77dILLw2PowgnCQHcCvYJMUyDISlDnriiOXDMMZB9NtGXfJBB3xgLaPuWd87w4YNUA5jy2jDcU4VfEVQkVKGmy4lj4XUzImsahcHC26zCYw7LITZDLsDpfSVzYDzyoWNHCwn/GozfEWQEA86cMkll0zfIS7ap20IAEJDfjiq7Idn1ScCw8YgCuTsKBDmg5TPnQhCwk0m098G19nxPgTNIBM8+wsIjN+ORCaY2BhhMgk5sOPmN7/5dAIioeHNGHyCcOmll07s14lfCAfmSdAJhHt5OsoXBeCRE3ghLRMuysCDZ1AJO0EVHVCO+xzZLOSvPe4Hkhgp0FcuwMR2nW6GdWObyBCj7ZjqnKFOsJEfQi9kp2/uu/DCCyeSoI+IkT6IShgz505QOv3Ergl+2LAT9PSZ8PqIzBBqp1U6iyIhtsMQ5jpIATwqZR1VglDXSqO/yLaD1HhgyICDc4RbyS0iTRbJdvbYHIU5YiToMAPI4JyvHwbQXHIsGEx447wE+CGUDgsdjGdJlPFlPOErvLJEA2943SJJNbdFXed2ABNclZRKpAmeJY+O5VyYyNuHh5wwjiOjrf7st2LgpVnmTJIzZThAz9/q4tRxHskvu5LIAGNurjmKlkPcb0laX9Thf23RF3LAPrA/bA0MZkf8jWiESPktesAekJ/sa1OPSIUx48ApO9Hc80W+VhOEhCoDlEL8TivkRWNYJtBAZu3S36ICjLL7eNQMr5PkrLUTZCcx8twJL6MOwDznyFAThRUiDiaGN25pQHnq4N07kla+cHsAGFEeN8G3BwFBcB+jbJIJnDbw7nlK2o8QWKbg+WsHQSRQlIqwCrFRFAJI2ZAC4TehK0zTMaUUioIZFwqg7cAXkxYy86OfyBJg9qE46kBARBgohyWFW9/61hMRwfgtk4iYCGP7ZNwTfTkKnuu5pERHlSDUzWZZZyWbF1xwwXRcuZz3vC1gSG/oiiib6yGzh13WagShLjGcS/K31Je6XAI3GEbePGcNxli2hbkOk4MvjB0S4X8YJ5rJY2b0r3vd605kIcZb5KG+/s54IpFkCB7WDYPug9GWRuEzXGXEyRdZYydgqcgAzLZHAfYlBTSHDt5aUlAGJ050C3YiIzCSUyqCAOc5WOwG+8JxMw76IxLCsdNXTpbomOg12yFqAfuzRO5eJIWD6UeUWBvqZk02wzIEnA9ROuw6cVCyvxNBMCiMrokAKFigSTRRwMR6EYNuwjE1mwh9L2xp8hlQewRs7jPZlgiwfokZsD/l8roBlDATL/qWt7zlxOgIFK8m7ziLIBBGISzG3fqS8JR1SAbaJBMSwuFvAhdFYOC1kTAINfnbd8gL5k1BCKBnsGFEgqfPWNvTQPgJvnCe5QrKhTmLUtjjcJ/73GdqLyKAbSMIiAUCg/kaD+OI4CiLMiIWhFDdxoOiIz/qDGut3uBBCcBxOetG4KgThApoiKpogSN9ReRE7IC1o3oZCTr6oAc9aJL5o5ILP4c1ZYlBf88HEK/LRyQZJolOMmbmEj7CIpFRzg+Db/MiQyl8zmgy0jxqhtvfDD/sJBsiBJyjurPdcwhCjgqvJAH2CccjozAaJsNz8oSMxoEUtSJzyrb/SgSWp89ZZMx5+yJZIgMisNoiKuB+zhnHD65qv36KkoTU6IdyEhFgayztij6wQwgOnDdO8BwOkx+2JfYlpEg/tF8kRJn19eB1yHG071pNEOLFEsi8I0lIEAGGDJAAFgNJMBjt+9///hP7MyE2jViG4DG73+TwkBlOJCK79UUKkAQC7szxG93oRpNQYIkEh5Bpg8l//OMfPwkPg8uQKxcJ8Iz/rXsJHWGyBIPBBoqEU6QCwUjoHqN8ylOeMrFOSkRgtDGEQf8sJVgSEdGw9wDBIXgUjkALq+mf0K026rNXr4S0LK14njJh9gTvrne966SQxhHRoMxIifqtEWPD6jkfgO6wq9FRJQghldXLJNcAmy7YW2M9WRjYchuCjTDf9KY3ncCwZoo8zHNUCQJi43M+6E19TQ2GPfzhD5+MKazjfPCgYSojyIhyfEQTGGXza/8WnIRv7hdtYKxhlbLJTSWJDDyvnnPIwYLd2XDu96Me9agpekvGYqDh+N3udrdTZESZsJb3niVW6/6cTUusyvUR5VAGzNcuRAA5sPwL90VCfNgj/bFnQMTEvjhyDVevc53rTMvgyvede4wRIiNiYAnYkovIBqx3T6JueRNNCm84n9fQqy4dZp04iLbtiSBEKE2aMDuDzAAzgkJUBt4kPvCBD5wEyF4BrM6EEuLkSUAEePiWHoSQKDlvnRAiGZib6IR1UkJMmIWDgBZWjHGKHGCW2LFyCCYWiHAQMB48soExM76EKWSBgPI4RBGACa/djlz1aZt+UBSGn5CKaiAI+k0JRD8Imja4Hxkg4MBVX7BcLBgRALwiKMZDGa5jwJTU0geCQIixd4RIFARDF1k5H4DuIIT5dJZxVAlCiH1Aj27RMUB+7WtfewJcsojok32RNFEr0a6jZGTPR4JQX82DEfCKMeSwwCwGDVGAh5YtLR/BMCF8S5/wyDOMJseIQwMf4RFnDG76PiQx4XUhes/7cGKmlLwnTkwRARsfOYXw2X0irZw72GsZmh4hoNnkmLNN2A3tszyCIHgWIRDtSgSZXIp0sAuWFvJKunGAszY+sg/Z7O5ZGMr2sA2iAu6Jkyr6AKNFznzq65r+1x9RccvIObo6b3WcTqw5TGXviSDkdSlgwmM3CSYDA0yKRsLGI2bsGHIbR4SbfEwUwSBE2Jklh2w+JLAmAZv1nPUmAg4AGHQCSWAJNSEiUEJeDK8wGgJC0KxFMtzq0RblKTvLDaIKlgU8R4gpEzLhN4EiiIiDaAHG7AQ/mxuxUn3K0oM6CJZIiA2SmGbeukAY9AtZEUVRZsbDPYy/scCSjYX/I6QYtoiIKMsxQTj7KnNUCUKNIBhFOsNbYgSSX8RvhJy+0QcGhg7WTWpnfwaWW5BESTnu+SiRm72ObcL+nmckhdjtnTK35lh01A8MQxQYScTPc9bsXYO/nBrP25MAvxBIht6eqJAEdWRTH0z1UQbHKTgLU7UBBjPucAt+eQ7+kythfveI4DLksFaEQ4IrGK/t8FiZ8Nlv5cJNjqV9YtpkaQDpsLeM48gOiWrY98aZFFFAFtQL/5EL/XUkOCeMjWCvjJM+sylkSPQWUaYTnEq2h5OYZE3RifMFk2cJwiiMUjcqRigJFqOWQzAygMlemJwGyUiojGS3qgmUDHjefc07t3nvNOtsvifsyZwWgc2hHRFi9yMOdTKzkcn3mdwkfKpeVkJqhJWQ+MmeC+ShAq6/Uwel8IMEhEAlyZJ7CF+YdvZxGLeUkfFMXwm2+vycL8K4V6A8E88dVYJQNylmnBI6zt6WmiUyQEjmjsp6q34gPgh53mI4Km3fj+x2LOIE5XVvmMO4Mb72NSEGcBdGwVD3whjXvcnAaMMlTpEoAu8ZXokGVFuQvR3BKZgNxxhcxhb+qZtRdi+jbgO58njsIq88+Gwi1CZ1IwKe5Sz5nQR2yvcd5873HFD9QgI4qJZQ9Md9vuOocgKTYM81yyrZU6EtnDPjIOrrGW/Oed69NlKKIOufMVKWT80/cxSSh+1HrmIPp7m+/PLLT8YAReAqW+wV1bBWBc0Y9WzuoKC5N+9g97Lq8+4PI047ouT+zzu4dUNMjGqvO8KbLFsx4iE4AcG0J6Gz2r6UEWHI2wNpY+9T/q9jWBUr/YuCjcYk99f5qJutatl9LPdLIkZlZ1xiSOaErq6DbmvHyGBte2ZXYZ/rS8pZGse5uvKM9osmne08CKMxW+rXSPYzF9HVyHi+D0nYNv5VzpfGeC/z3PvUywg2AHBvVFk2yeuZe6lvVxnZTx1zde0yt33sg1vJD8Dz9l1wrJadsQtOulbfWAiuamd9ruJn5Cr1Bq9qdCPlJCoVxyzPVntTX+OuexuC9cHyYE76lvqzCbLaELJRlwa0J/XksKKUl+WUOJ8Vp6MfI3s50pHcVzGvtmv0TLWJB43xI/vbbU61qdM1BCHHZHaPeySoaxRiG0CvAZylAQ/D2XbPtnrmJmhpYtK3JSXugtFJTVemWuYIAHN9qe5KJJb6PZqbbfNVQWjU774WWuvvgJS5q0oWZdxmnEdjs1YG+thtU9RebrxubWWIeCLbMil2IFmjO52khqRVY1Lnus7NHEHYVu+cER6BRwAkRmMJLJfas7ZN1eDNybh7RPyEjy1r8jSr0VkDtLWtfcxHhryOezega3Fnl/mq90bfYvR620eGoLZxDgN8X3VxDm/q+IzGynO9rConuZ52Vnyc09OuF6Nne7vW4vva+VqyO1VGat9HmDXqby+724y1Nm80Z5HV+ntORkL+RFQmPvCKV7zipPXzrP0n3JgweAf7bYq9y2DPTeBIAEf11jXSbkT30o6AUe+zEFo3dDEYdeIyAWHK8czmAFiZyf6VOo179+ACjL0NKdc4rM16p4weQQnoVyXOfXOGqStsb4vrifrk3kSEaohbPaNX6UaKVT3egOOIXFTCUtvv3mRCc08d59qfUZQsz7pm7VKYUyiytzPtqd+PDNucsRvJ7ZzOaUvGuMpcNxi5lnmu4xi5ic65lgPFEnZNn+ocV5nMs5VQZLyyjJY5j1yNxg32pD2j5UVybskty5mpzxjYnGwznI1rKSMZRyN3fs/psjJiRHPfCESr3s+N+V6wZ9sztX25t4e6O6HLfI3aPDK4VW6qXmWug4+1nlxbchIyrhUra9Qxbek6E3kdjU1v37bxW7re9aXiYH/OtR4FrXoRbK1jVG2Tv2sm3JClbvNG+DAidhnbem3uvj5mmc/oR+aHfgkaTEmr3vSmN520bpOQUEI0c8Z77USMAH7tsyOmMwL9OUMwN0Db6s9kdeXpRkjforCVsXVF6oKfftXvo7xR9k4QRuVHcapgxuBt6+Pc9QoiFYCqAOufdbk+7gHd7AVZMmhpZx3rkayMBD7fhRx4ru4/SbtHfXEtgB5lzFh3eRn9H0Psms1Z1lbtAu+yMSIIc3K1ba7SjhFZzz6ezAX5CWFYAtS0pT+f75UREpU9Qb28hGVHxLUag5CBzEf9PdKNShCy5ht5qd6y++qYaC+5tEnNa8GZgwBf1cvoberXb3V1AjM35lXP6rvy2+Zy7vqcrozur4arPlcNUMeubszrmMQgdANWSZy/Qxj7PPa2Z98Zp8eYVjkZtSs4VvU1zk6X5V5X/s/v6HKtJ/2Yq7t+n6WFtMWYZM9Yv6/qfPSmks/IJ1w0FvY7ZD+a+3ynbHW5lpN80xckODK5JFfp32hZqJKYOr+ecX9ISmxZ5N339l3Y8D8RBMc9K6wyHwWO3n8eGeTegcqE9qo0fZKrkazg3YWkKv2oHSOlGhmn/mwnLHN9HJUfwKxlVEPXgTJK24V6BCRV+XchRaM+r5krzy3JQB2XToaq4eh9G8lQZ+m7AOzc3Pc2zQHrnEy7n54IZVMib++sAfgK7Nv6PmcYRnM20oWRHMRAVv2ocjkqJ+A96t+aPs/J5kiX5to1Moi1rQFqsmJznleJvSIHYAOAvW9VBiquVL2b0+85HVszHmv0a4kURO9ikDro9/bXMV1yHkZ9rTo+6vPcd4xdjFY1+l2Xq5OQdo+IYI9Apk+VzGXsex+rbejtHWFYHdeUXyPUdTxHOBIdcy1kJZGs/E9elR3ZDAnKd56NLc6Y1bpqv3t7uuz0PndZT3u1CRnJ3GkzYpAziiaCECGpwjIS+hrm6sqbTR8jYA+wrlGkDFKeqeXFQMX7mVPwOuCps7avguPo7witZxNZ6QNuYGt4t7Yz3lw1/q7XsGkd80rQwvCrcoyIR/1uzbguAdTcONZnRm2YA7Qo4Fy7RsDfy1oiCGvbMtf+vRjpyISxkv+CEVpLEPZqHNY8N0c+eh+rwY7MR7YrIMYL7KRiTVvW3jMC2Kor1RAsyXbwwP3eEkLc5FrJm0oj47dNdqpebgPdjOPafq+9b8koV8NXjUjKDs6lbbmnY2KWkqthqzjgfjg7qqNin3riXPq7YmLF0d73bZgVg90jdClzVF4ft7k6RiRxNOaj55fKHPW3y/pIBtLXOhd7qTtzvo3Izo3TiHTulAehM7rKurxnS6C8UpNPwoJp+KjT1RDUBgaocl3dXqPxDqwQjZCiH88wyLnfKzGSJlkjPrXR4sSJqUkhH9rhfq/J5J1XbfXaj9BxVYCQhISEXBMSSggoZMBrPEJKXuWp5MYrPd6/lT7Zu8FeN/LqUNqs/ChB2uQ1HN8nFKTtUfARkK4FnuP79j8C5tbrdCIIR+E0xxj/yFgAK7oQ+Y1hrLJb9Xf/I3f6StBmmxTNi/fpk0nx9NV4OEoOXsZxM5d16TMOSfDXfCb8XUPMWc5RXrzd4E2csYpTIQJZjq5eb8LdqTtGbxshOBwjetyKNyNeJ+foxmCsInwJlUTYGGIZqrxT6iCkCEPdLDTySEIwVJUMXjmC03eSIQl3eEeWEL7yla+c0jUz6taBJdXgyUmKARQQA4k0hEe8R8toS66kHvf65B1gJEMyEKmhrSW7V95vSY2STIbB1y5JZBh+GbV8tDHnOWS9SGYw797qv7KNjb0dTne0LipjnaQkxtCZDcYQqEny4SPJEuWSJlRWMTux1aFtPKI6TafTuztWkeUROGoEIaS+Rhr0Ia9+xUv0XY0e1NfiDju4n88EoXqfwYg4VUmJ399Oi4GP5x9ymIiSxETwHIZKnKWclM0pg4XK5FDBaGcvJFQdkhJiAQsTFT3GlqM3AqsjCNWYJ7QnyQYjyJAywBJSMLiMGwMucxaDS0g6A41Hr9ysfwAoZCO/cx6B9KBhq4iALFwOVsp55bJoiVzI6qUs1+WZl5TD2qTUyFJxxiATbIZZlkMGWHRAnTwQmzMIfCIE2u17As/4E3ZlIh4+/lenNNMIBKU/FqRlAAAgAElEQVSK4jlzAemQ49sH8fCcOvwWSZD5y/3ygyMYyABChBzYLf+QhzxkikBkI2CU/7CD9tFThXUtPmoEIRGDvHtOj8ieLHFklT6RJRntkGuZ7+hDZLjvlF83Smf2Ln20xOD10/MpglCX8io54Oz4yXVzLOKVt4XMdaKrcC1JhXynHPjmnBsZbpEFGTazTq1cZxcgCcjC4x73uEmOPOdNEvf5qENSI2ch9DdHzqx0HNe2nxHYiSBkx3hCVVIcM8K8XyF9hlVWKgIpXadrSALhyU7Y2ti6RFHXupSvTOcROOtAWD7ZGj3jnHCvmDH0DKqDZhyyweAiDQRTSk/PaA8jndejfE+QkQUHe/DuKYn/CbXwftqa9nmegjkvwhhQEqQjITlK4XAqB4hIy8mg648c39J9evUKaUEQADRFBGjWsL1P73sHW8kKJvqhLZZTHELlREvjGaBfWiPdjyAcP7tuBI4aQeibncgasvyYxzxmOhAs5FPqWnsrnEeCbCfEPFoDXjdSZ+6u85UgVPKXZVHRVI4anOOYwRqp4kUlfZyhAN/gJZyBW07MzeFMMiDKisgpglscKBHbLD1kNz489ZEiHn4mhTO5gYfq0Sbny4w2+5056TiuaT8jsBNB6JuapMjELp1hQJgIHfCRQztHFROeCEjWN9PgvFrRQ+aMoxPAHPLEcArpSwdKUN3L0/FxGBNht1SABRNIgouUICsMq0NLHESjDVJrWjfOYU2SqjDIlhC028EdTmLUZhEBnj+Bp3D6Y2lAXYx9+iSKwuNHkLQLSaGMohrqlStcPRQv/ZdzQp3SeiqHEjtZEsGgaPqB2MjY52CSpHsOOTgKXt1+hPIwP3vUCEI8y7rUQBad5kjmLMu5hxFxVLBjx5HWyNhRIQjn4x6EzGnmWGTIvDrIKJFb0QBzC5vhkWVgjgu8goP2SHHkXI/zInJ58cUXby644IIJC/3ALL9FjNXnTBz7zuAmnLTHyjWyw4lCEDhv2oKoHH+O5gisJgi6V9fBhZcYR8bNISC89Wzk44kwzPe4xz2mNf+8Mun5bGLJMkX1jH1HyL2u5Hvs1Ln1CIJTtRhop5JZziCcjDejb2+Cg47SPoIq7KUuHpNIAyPvxwmTlkBEEayfeYbxBzAiE9i0Y1HtiBZiI+TqtxwhuqBMSoEoeKXqkksumTZOqs8zyIGlDm3CwjFzkQLtBLbGCZFQr0x8IQgiJfYphMmLUCBaTmfLHoTsATkO2f2fslWZrCp4upZgjhpByJjUcSL797znPSfdstTG42NEnPB40UUXTVG4nnL2sMMbQ4jUI+P05Xz4mNP6lgKHTfhfdIjnn2OQYbWIAuyDMTCuOmk5n8F38PwJT3jChF3wNqc1XnrppZOzgwww+DkPwdKo02s5Wk972tNOnZgLH5EDDtnxHoSjK42rCUIVRt1lUAkew+fDIDLcBJGRJ4iYKWOWTS/C7dnQUl/HiZAzxDbHWCIg4NiwZQYeuixpljREFDBUexDUr15hUgZBaJRnrl4ndiEA2sTYet5yggiDzYIE39+etVyhPdbdRBAQBMsWzlDPjui0l0HHpkU4PCfKgaxQEOCU0J4+IRzIg7HQL8TB80J42otMUB5KiSAow/0IjCgKtu+oaMro/npgyOkygEdNlI8JwroZyzj5TT8f8IAHTCQBQSBLCAKymyWGvL1zFMLD+mTZj2MSgnC+6EfFZTiHIFiWhJ8wywmNHJe73/3uE5bARXupavKjOH/GTOTS/XCd0wPnYRQs4pzBQ3vCsoH7bne72+a2t73tVJdEVcZfmzwHxyzNZg/aOkk9vuswjcBqgqDR9ZWpeP6MVtacRBTucIc7TMJXd97zmB0depvb3GbaxJid08rMbuqE+RlDG6UYYQCGJFg+IICMdl4t41kLyb/oRS+aNvpZr3cSGU/Ch3efHbUElyG3iRA4aued7nSnKbya3bdYNI+KUoh6CL3d5S53mQRc3fZUOBZVNIIiKo9BR1qUg9w4KEaoLq96OrIZAXGW+HOe85yJgavPM9qB/PgfwbBsgXXbh4AcIBWUErnydxSyLtkcJkE6W205JgjLIz9aYhBBoFeAnQzTa8t1j370o6cogmWyfI7KGzPwAkGg9zlR9WzJ5JmqN+v9WYLkDJlTHj0iEMNuqUD0wPKRsYE7iUJaZjDHnCXYZnM5meHQKAdW2auFNMBuBAJG+eHYwHvYDsc5Pje+8Y1PvXqOtNXlqjM1Lsf1HNwIrCYI1QPxN4GglFkHYzB53jxwwsez5zEzlow25bUMYK3Ks3kVMLuls79B1/zNaAKx+93vflN4v75r6x67Zx3tKhqAIFiv530Ls4lUiBBopygDQ2ufBOHOazfK8DyD7j594cXbiIiQCJf5G2FxzRsJ7kck9A0ZQWosfVjvw9gtjYh2eE49QnV2+3o10+uL2bBjQ5gxoVw8N2NjGcI9t7jFLSawRrAoYJZL7KswrhmH88VD2ibqxwRheYTqq8lkxpIbPRUt4+0hrfSR/j7zmc+c1p0T6Toq5MAIINIveMELThGEbXJzrlyHR4nymGvLkvaFXeMa15iimZwhTpTIq70nT37yk6drlgpgI3zhOOV1RmUgGkjETW5yk6lsTpPXtUUQ4BISYflY3be73e0mebn61a8+RWxvcIMbnHIALekiEomAnitjfj71YyIIAdltRsd9+SFIPOm8O83gCSsxkAlj2nBnuYChc50QBnSy4a6+qlPJgmcYSssFiUZk34JnRBPsfSDkDDojTmDtW+BxIwvYMWOeOhlrjNbHPgKbHpGPEB77JpALzNcmGwQgrzHyqoBpdnhrg/uVw7hrg3K0WxguyyAIiMiD3cJYPSNPwZQtHOhvzyAAj33sY08pEzZPcSkl1m/s9M/zp2tNb0kOEjE6k8qxRi73QxDW9in3pS7rs+YYMew6s02H+vit6eN+xryuUWfZQPTKD1mmJ6JSjAcdIq+iZtkrtMsmxdF4bhvjbddH4zUaY/gSgpAd9rvOxX7GuT4716dd+7qtPcmGqNzkpvEMR8gPPPaxFGpvk3lmxDkl5hr++R5G+yRC7A0yzpmslPBQgjcH+okoIAuctywlIxIcJyTBJldEwfjDKhEF+7g4T5mLOgYHNR5zOrSm/DX6t6Yc49fv62WvLSfz3nFnTp63lTvXLvVsK/PUWQz15m2gkI7HuI+UuJaxBKKjCQoJWVLwEJNat/tz4EsEPh53yEf62d8hTl0hLghQvC/PeD6H2NQJ5H2NNg1mR3CWBBI1SRtdTxQlBAahqXVStFpnnei0c2mS5wCmG9U1QJpnRgZ5v57mXJl7aWf6HMPYx6D2dZti1WcDxr4TbkUQvLnTx24ku6lnpAe5f5vObTMWHVTmiMgIfEbzn++iJ3Wsqi5ljubav2aMY5iqDtZ2zsl47jc3jKFInGW+RAkPakzXjn3Hok4a8n90txrNGPld6vJMz4uS8TYmkdlgSB2vmukw4xRZRB690SUyC4M4gqIBorLJ8hp85cRxgJTtzS3EI5jLWfT2GQcvMpNrqatm8uy6OSc71WbUv/vzc3JTyx3pX7dvHd/qvKWOXk7mpSYf2wWr5zBxm14vyU+Xty6vVefzmvOJyy+//GQMYARujYc6miTl1I71iaiDWQdrBLKjjnaBmSMetQ3VkHaFTfKY3JN+LxnfEXCm3CjaXJ0jYeqGbCQYfdyqsU57RmA4Z/jn6tgGTulXf36v5XXAXALYLlv12d7uEWFZGtelftexjvxJyIMgiCitld25OnYhZ7WMETnfD1HrMp++jua6As1a0NkmW2uIRIxS1wf/W2Lg5VonrxGQbfWeyet9rDJf1bjMzeFIfvNcxe/en0rm+mvllRikbaKZNb0yjMzbaRUn1VNfs8wmbnKZI761Tx2JblSZqiQp36/RhYoDawlBx/06bnUORrJQ56O3s85J9LHjcCdw1e4t4WZ1YNOGOYd8zbjVPvd6O+GJHZz6e9lll51M9qttAD2nTNvAN9f74G17LvX1gUmHRgNTiUuEKUoyuramzyOWPproKvR90EcAvMawjsZs1O+RQI3mqxq8SmyW2jJnLOYUqhvzDoSjsUlZS4Ziab63Af1aJerl1PZEDrxPLjQ/WmJYIjKVDGpPlcsqO6Pxy3dVl9b2qY//WkCuMjGaly7Tfez6PC/Va2zq/pp4MEvzUeXSxl57e2xSzJtHa8Znm9xsuz4nk2sJT8WkOeCea0M3siMsG+l7N5gVT9PuRHVCPrJHzL01CtDLGhnIyPmcMe7EoWLrNgyrMlXJUJ6rMtrbWuupeUIqFuWepbb39lYs3iY/c32NQU+9c/1YwpsqT3O6MMJ9352KILzmNa85KftWXmcxyKPw/VxH05H6OweBZB0zyj8CkN7wPiCercw35zvUNbfRhHZSkIFMfWuiJCm3A9cSsakTq//GMkrm71MDf+LEqf0cI9CvANOBtrZH2XVZoo7fUh9rO5WRLJl1HmtEpQpyb8+SEtf2pK19ziuoVEDLs6l7xKCX+ljr6WHsyEOVk7l5rSDEw7JhlZdqo2oF167stf7UQyayJJVz4vNdsoVG3tXruelc9v8F5iXAr+NVATKb2Kou9eWyDp5dProhq4AZ+Rvpcg0tp446Z3VsE9FzH6dlLvtq5KVubLanRxjc/qO8xTAajzWAvcs9Gaf6jHpHEb0K5t0AdKCvejPXj+BsxYBRErUuM9rmvuBzdL+fkpvlWvW7Zrz9zjyN5iHzXWUisjaSqYwV2UzujU5O5gz/SL8q0azGPd9nD1eVy+Bpoh2ZixoVyHjVTb+R42B89Lq2qxv2kVyMvhsZ9BHWzUUSe9/r/1VWR8Qo0aBJ7hz3bOI6Q+xCWQGiVpAGhnVUI5DBybXKFOcaXIEtz2lb8ohHoPwGsNUr82z+r+QkdUVAR6BVhaJOTu13+lP7XMuOEFbQqwKVfQ1R7LSnTnIlBnXcej0VQDwPUKuxqn+P5q5/FyGvBKECeoQ44FCNaSUoXTby3BKpGI13Xf4J6I3GqZdbDWk3anVsu0HM/M+RBOVmjG04teFVgq2uyCOFzbyn/vSnEt8Y8Srz2hRQqPMyqiOy3/WhGyt1VjDuAFb1oOp0lekOMDEwI1DrxqmXU6/XSGbdnd9lKuNXHRlLDDYM29iLUGX9fdSmXQjAtntHzs8IyNOO7A3IPPi+EjjjUclbrkU/a3vUE6MeoB/Jcdpoj5Py7dGwLyBJ2rzZoiz7DaI/xjPzbzwR42Bw5NbzNon7XQ/9iix6RrnqQvbU46f2SZmua1v6kvbGcAf70veK48GX4D0ZqmPhmbzu7jn1Vfw1riGj9RVyZWS8fK/9xsF3yUeTLJM5w8K4puzoVfZYpC9pp/KjNyN56foeuehkQhkdf/NsyFD62HUvNiTEKFhh02pyBp16i2HOKHYgTUdrZf7OpKgsIOXv7t1WT85z7smAp4HpYIQ1HelGrQ5iH7iRMUh9uRZBzwDleiUpHSBGgBeFSDmUIAfeuBawq2OknBHbr6SqGjvCmA2RAZf6fMrr7L4+U0lfH9t6rRvJakQy/yOPPOPQ+xXPo5abOahzEkCKwsTjDTAF/MJwq6GMAa+gmTYm6pS21+er/FVwTdlZT63j5dVWG7CSJW6bERldH8nniLSMCNBcfaMyu0eVezI2AbCQ5lpfZGqbkY2+b7tv2zhV/d42PpmrzEt9i0EEoRuVbXWfzutdn4Jbtc4+z/3aiBRWRyVljjAleplTGePpeiZ5aNyTyELISMUSGJZD7eLpeyYnRs71JfMYu9DHIvXWMRnds2Z+KjYHs7bpT7U1VWbm5mg0D90ubZvXbkPm8KESorRtNDZL4xX9qPrS6+t6i+hkH89OeRAyaNUYG7Cwy+rpBbDrwUcR1DTQPRhZfS0pAhWBrCwyBkOZMZKEPYY+wlaFsRriTK525pXBGk7J8yOgrm3OhMRLCdgGZEOM4h0EQEOW0qaUE4XTpqp8MZi5P55f+qH8tL+Sj0SDqqfajWPamN3M1YOtStX/Tl8zlxnrDkwdvGpbQgT7mEapE9rU70SPanldoONJVpCsipHwaMaxzkM1jHkmHkfGO/Ke+ZL0KgRhv0ZxDfBFuet4rX0uclENbuQm/Yp8uidjXyM/24xXbV8lk3sx0tuMQwf+1B2C4DRHHumZmpeleVhqw8iobOt7H8/oue+zfBky3NsVY18xUPtgN4MQRyKYE72oDmHFn+pUdXKyRl66wYp81t9zYzvCp25M187LknEftXFJpquOdZ1YMtBrdXnuvl5vt19rdaGPvedWE4QOUgEVWdm8sy/kqgKbhZIu2DMJPWXtyv2U2fvWYarZJQuYXfOqjPdsCa13cpMb3nvbFYCQi5zoqC4hIO3ynOQc/k5Ih/GlCNUIVwMbQzcK9/SJieEKoXA0s3wKypN4RB9lqMv1CJW6PSs3g+yLye+QNoZw5LmAtd/J8yAzYz7eadbPZHusxA14GI+Et4UM1SckqJ1+G9eclbFLvwMekYl4oeZee8xnkjolB0bSUbs3BjiCSzaMjY9+KiMHv2hzgDBz5DUsz2i7DJeSb+W0zsibss2DZ6UTrkBX201WXAth9LwIUManLm2dTYKwHxBJODPRkMhJJcnRq5CpyMNacNlP+/b7rHlJMrZrXetap8Ln+y33sD9fvdnqTPSIW/qRJbIJ+P/XuQhGV2KQ+ysZc51eRL/oW3AwTs1RkJXDPqeHrX07E4SwRQBCYJxJcNWrXnUSFkAtG6DUnARIIg4Gzb1Zb/EOuWQaDCiBkpTIruOw2Gc/+9mTwfOOufIdPCJhhyOXpfFkWD0jQ5gUygyf+mVLlB2MQfKde3Noi7oBPoVivNRLWWKQCXhyDqw1lDEWDJ/sZd4RBriykHndSkYxdUjmVD00aadf+MIXTglEGMKsD8XAMbLGI7nMk4VMpkhjqTztl9rZqWsve9nLpkNR/J/+yKTmXuPmHklwbESV7IkBluxENj1JqCQ4UWZfohkJakAi6476q53ejWaEzL33niVGUR4CZ64kgHJdamz9l8nNPRnDEAybzF7ykpdMY6df5pVMBajcb0xldVMGkikznHffHdXtO+OVCMFTn/rU6f7rX//6p9bylYVYSUwVGTaHxslbCWRPEi4JrKT6DukMiTMuZyOCsFfgCIhrf7xI40O39C1kze8aLp7zRPfajtP5nD4ilHQkZzGskefT2aYzUXY8vkRTo58x1HUfDwIFB+gkPTTfHBW5I5wJI9EbuSf/waxEWoPNMJaeeJXUdyEG0eM12HkmxuW4joMbgZ0JQrwvvxlDZ8pLUexUL6mUCQkGayPXjW50ownknTEg6yAvW8pjAsgIMuYOE5EtkNDyxAksoAbQTjtkXBhTWdJsCmMEnFvAO/Q++g1veMMpvTKvkqFgKB3MdPOb33waJcpCORhtecXdT/A9y0jIrIhQAEuCn4Of0s/OiqMM+S1FLUVjJPUT8VGeXdXa8pCHPGSqz3ggLA5BodAylPmtH4ymLGVAWz58G62QCCmbHYzi46Q6mSkZeW1+6EMfOo2FZ4yTTwgQUuU+p7a9/OUvn/KqS3bCeIq48LJs6NJ/bZRSVf9HnkO+S3+BjLk0zxKjIAkOgQEWjLU5uspVrjJl6UNGHFdtbmSb1AYAg6A4tEs/s7RhzMgQcmltH6FBLmyWqR6K/iCRzsnQX4cOGWOvHiKIyJK2IQHO6zBmIiXkyZkY2mUMHLUNFBkV8mMckBEER8ps887YIFGRo6MYQagEgb6ZL4aAoSAPOXiHDCJlxls0MJ+jYGj10fyZS2Qwb32c6x5tlo+yzEjPkt3W/CUqZxwcHMcx47Tl9VwYk0RHiAGSRReQd5jpNEcfY0uH6K6ILkIB491Dpiy3ZYPhUZCXgzOf535JOxOEbDjDTqUjFhFwLoJzBYAuQQM+vHsnfTEEDBSjDvg9l92gvHn53xEEP09/+tOnrFyEVKpQzzJC3m0moDlymcC6x/2WIggnY2T90feMgxzhCStTEO1hSIC/751u5pARxozRY3RsbnKIE3acZ2sZ1Vj63o8c5zxZhEc5jK769Jen7SwJ/z/rWc+a+ujvhOk8T+GQIsTA/zly2v9IR8DOq3XGyzhQUH0xvkgaYuUaguIsDHUhCIiV6AZygojoHzBFEIyrtjKWoi3aX9fas/bf1/vMLU/fuJm7nM5pXn1vB6yQfs7HAEDaYc6QPETBvQw2cql8/4scSJPtLIqcyik65RwL42bM1E3WRAucaY9AOFzozne+8zTW5MzYMHwIg/4iWUAMkTDnOYgoyztOvgN0+o5AmANEUvTFeBorBlM7IwsiJeYB0B52QEzoOISXzjrYzMFp5IIRIL+iThdffPF0FkMy4yUUfdhhMEubidxFzs91ghDCGrnMHCN75JtucyBECR3iBBOT9hheItAIFXlGpOGBDwcA/sIueOqETzqY1M0hBLAL9riP05LxPtfH/bDrw0G2byeCkNAtASBgjJlQtUOJgDTvrx4fC+gZd4DrftclM+Gl82Bvf/vbT8bM++QElzFj8NQDwDzDq2RUCDqg5+0STOCtfgYxoWcAjzUrO+cmGCwg7nRGecMd7kSh/M0YyUXuwwAzPkCSQcimOmXXVMpRypz7IIzNI8a+tVEUhbG2Nq6dt7rVrSblsUTCaAIxywlh/5RXPxh8ZVJGRAq7N3bA2/3+N048AG0T/nZgirFlPL3/zaACAsaRkRRFYQR44wyocnj4jLXIjWd8x4jGACecqA/x7mvUiDFnoBEtpANJ0Xf1GQsncfJUzBWQUQ/PXl52kZbrXOc6U3tcFwVQr9ClNwNEVbJ/JaRK3njzz5DxkMgDWdFmBAFJYcSz50QZojQiOKJVyhMZQATITjwe7VSeSJLQeg7yMh6IrmUHfdU3wFr3QmxLlHSQCrrfsuomRbKbE/1ElxAFoG/8yIdrIlnZPxPd2W8bTvfz+mW+63HPc7v5T3dbznb5ZNY8ItZkWsQN1onykWOHJ8E/S7RIM/ylG3A7y24w3VInsgiPL7rooqmM7C3K3ihEAuGkxxyZbFw822NwXP/BjcBqgpC9B9nFjlkyqgTk3ve+92SYhGwJGeDGMoGs5QfGhPBgqdgq74wyE1oCymgJN1sacPIYgyASwXgwnq6pD8HwgxkzuIwtgfcdD/jFL37xZDwYeB4uLy8fHrMDSIAig6DNzkV3vw9lciTqve51r6md2eijvyOCICRO+ZAAxkxoz6Emlkq0nUHhPVvSUAejgrTwmoVxtY0iCmkzjtoGzLF6pz4yfPZhUFCHrSBElmZ4d8CcUlJgXjNDrRz500VAso9D//T70ksvna4z0PrGODLcjCXFNg/Z8JS3GqLsoyUW44fQ+Bgv5SMF5MFeDMtKnjNP6hG65qEK15srhtv4MVLGCtAAH3Nofd+caiey5m/XAnjGm4foWREF4ylqgOhlDdSYiWQ4PAZh0B5lAcgcHZ6lMEtY6jA2IgnIDNKGWHnOPCFmxilrvkdtD0L2wCA75s1c0UHyQgaNiznNfh/zlL4e9ghJ9JsOnG97EEZmgP46qZODZW7hnfmFd5wV+kDvLY3STd+LVtIlOINo0x/RUGWQC7pj348IIGcHrtFHustBEYmtexIOzjwdl3S2R2A1QdDQvDMLPAgiT40hAzgMOyUF1H4zZMAFcbAOzZOzwZCXa2+C+xk469Y8WQaBgvNoCLFyCCN2yxAjHp6zpCB8z+gAccsKPB6kRFm8eQDPEMXIa4eQNsYsSqEfDBsDqi7GjKAzrNgy74PBFz4Xkq6bbxJByMYgBppHzQtmxPVRXxEExowXrw4kwB4HAJ3NdMJzjBMS9OAHP3giCAgTT1e/RSMYWUqLwGTd3PiKvog26BcDoEx1eBYJ4wkLH1Ju7UBKGGllMQ7a7VnLC4x63hhhWHPC32jTkbqACcNqjEQxkBBGW9REGxlUfQFA6s4R2e5Xvr0iAAaoZDmHfCnbvGi3+bd8Y478zXgjRtZBRZa0WzucrKhuXrAPuQRuQI4BNIdkx1KEzY+WbbQTiUQGLFVorzlUjr/95kFZMkFEkM2ssZIV44xoiPQc9nBqCH0IG/kjj0go/RGh0UdGw5witPQnkYej4IlnDwLddkJqEv6cbXA9G/WTf7IOF80tTILBHArOAxIAK+nH8573vIkEXHLJJdNSgSVc15H36BhcQLSRCM4LnOEUcjLcD0cQhGx4PRt9Pq7z9I3AaoJQIwjAhiHn1QsrA1RGJRvfhG6BOiEklAl5A2obpBwPyuhbwyV0QJmREnFQJm+OcQfgog8EEitmsBAPQIAIMCD2PgAzhpRRTZQhO+njAVnj7gRBOJVXzvgyzIz7/2/vblMEN5IgDLMn9oEMvouP4wP4p/HyDLxLUJS6NZ4dY3u3YehpqT4zszIis0oSEPGDLQMazrPPVLseQbAQAZ+shfr6l+bknDhYwIfBa888gLbDhPqxCMkM6IiaESjERHuIAsIECDlxMlPOnBExBEkkSK7qmBdHAAiBsWhBH9pFThApaXRyU874EC0pRotbf7I95KQtmZkffvjhi/7OPWhzb87asVXgh1Omr59++umLHnuaBIF0rsD4ZQ3ICRGkb4fjgHTvMNCX8QH8AIujA2g9yaGMw5q2SMxNu0iP7ReODpjRAdlycnQQMHJyHBn5IRaiH307l2DbBuAjDuaC3HGi9M9G9bPviUAkpWT/TgShfeoff/zxyzpD7MgaYULWyI28EbLIPX3/HTIIxok0swPkt0fw/urk7Xu4dUSPH3Tup0PB/Ag75ysFU2wZAUYMrCPnyPgq1/nx9G4bk5/nZ5Qt24b4+3S9AM6WLX/RFxv/F2X+PfT4V2nzy6uWb4O5KboDT4EkoxKh2hJw3kDaCrMUjQEoDtcBFuDIgJwKBzAcuGiQA0YQ7M1L5wJl90RsjBXhcF4B8CEbonnpcEZrDAxYxNr53O0AAAzNSURBVAN0ODhGLI3PcO07984ALNg5CVkCkTe2C0Tt7yvTI1+iUHUDQtkRoN7BwwhCB9Y4XeAr0uRYjR8AARsLNZAvg2D+ImGyMr9eD4tAGTuiI6rTJ0CV6iUP2Qn9AC8kBgEzDwvXXHpdKVAzJil/oMdJSAc6WwGQkQLtieLJkPzNv1Q/3Tj4CTRkO84MArnQKb3LbgBnOkK06Af4IH/IWd+DR/Y4KoDad+TJBnngrDga8jBHZNPcESzEAiliH6X3yZ8tkZuzJ37MAzFhG2SPFDhQRZbGS85sTWbCdhfd9MNm2JAnH9RDmGRggA1SSsbaTA5+a5PtkBEZnOvkz3KQrcE3jqTHX9kG3SE45Gxrx5kQkSAd2bu2reVemYO/w6Nr5iXilU53bqdX3r6RzT+tDFnQpfXPRvqEPILgnBjfykYRBFkBvon/YO8Ie/6QPJEHbfAzyCP/LnCwttmMNYsgWCe9vfLvQCj/aTr/nvO5ZhCenE/71DFMaSmG5cAYEPf0gOi3w18cPQfEsERhQCoHysg8WeAcgb0xIN9LjwAXJw2YEQtlgYU+GDoHwPBFhQhJB8j0C+ARAql7BKDMh8xEZwl6YVCCdb1T/HuSH4Aou48AVqd2ZUTMW8qb49WvxYOVO00s0geOWHfbHjlfCxmoiuABnuuyAwC8pwgAINIgOpIB0ZbFW5Tgbz+9EIk+kAlpehGuFKOtG8CHCAFyWzSAAGDb3nDQUDuApEfhyJHOFvDMGQlxnVyU77XS5qfv5mvcziQYl4iUI0EmZDhkUGQTlJHBoW/ZC9cRRcTDuBANGRhyoRf25+yKNpEtP8YroyALwz6kVttucF89doEgyjL0CJ+22BsniUzKagBM9mvuomvjllINJMmCDIwNceiRyl2g7d1nH5GKtyT8Wxb7bd32lAgZ9h588rV2zU/myT2E1HUElA3vh2f+LNLzR+du3nSMoLN7GYT/VaDaLSVy4U8EMIi/LcmeOrL2+RMkHakX6CEP7Fpm0H2+tsBLkMFO+F4//KmASzBoTbedu+e1/qg+/1/vryOB/3yL4c2QOuykbP8vUst5MhDg7d/52VWLdk/Gc+4AR1prH5Fpfz8Hr56yAEW6ubf0MWJ1e9FOb9xTryg/kOvcRHvJgXSkRx9FWtXN4d72YXvxUx8HkbKO4CA0MgXq9xZIoA54erWpMoEXh5as1rG1D7xy6vBgZMhcW7QAoP1YkXIvxyFjf5dm7u2B2iLTPqay+m3u6WWBL/JSe5ET/cgGJFPj7nFC8+dsOKCuKWeMSAsS5nrXzE9WwP0eCy01aixIWMSILPWFkLGH3mUROJuve4hA9pCtqBcBKePgnqyDv+m1drLxHq8VaT9lEFZeTwD7NgvwlM17s2bXlv2/J5Ga/97v5Uir878L0CKJiLFs1r66/Y2M/kllWsNsq2/cWHcIoYxkH/DhK5BCmQZ+CTn2f7pH3gF/T495Ask2VLagjPZsEwtukHw/ra2/OqH8J+n7e8/lDxGEHA3H2us7i/A6BZ/zy1Eq2ws9crRLNMpKrONyv0gs4DgdXgKKJChfP41pDdb/973jGf3JvCMnkY1TEYF3czgdaSC55KK+e/FPslNmI87tUx1ka9/NUJ/V2zHc2lmwb1zq1P++5CT5Nv8zg5AD6lGn1Ren077/jqlzBgHwjmftpEOwEcn6AuKeZMhGsp/qZnNrX2tb6e50XOk8wrOAvbYTEUo2EYTOIHzmEE8i8Fn509a2/hLpLfdENrqezd/sNdKQfFtLp00vcTjH+HRv1/rbeeczWv83J3j6EJGy7FJnSJ7qvHWoN3l+RNTezq3+PyOHX9te7a4fy17Tvb+Tm3L03ntpeqLJdf/UKXOqXD5i+1k/e/MX6e/0Iau7J/96Bigf6e2p7C3IeervrV18Tbm146+pdyv732zra8byr19//fV3e7pvf07AX6DMIHMsfq/Tz4gyrAxvHVRRb2XXudd+DrvUb0ZdpMno/QSqa5C9TnbHuIZ8W2C3KEo7235sXVtLkiI2/c5BJ4NAM8BdB9K4I2Tmd35LYscb+PfVteqVcSkSrq9+r+NIX/sVw7WNSE4gotxmXtKbsRircrufHVGszY3Oy8rUd3NLz5Xd7E/2WNnIV3JunDmp1aW66WrB6CQw9V+bzqa0xXBz5MmzNmtv23m73nJoTyTjBNMbCaqN1s/aWtdOx3mT19eM+c8sS/cyTg407yvW/8wx/FX62gxCwdJm4DZj2prJTiPFG2yxgzODms2dhHpt8SQFN/m8IZxnve8BlE9tfg1JeaP/b2nve8z7acw7zn/9/PPPvzudukC8ILXXl0VmdH4DlVLm/g4wAnv3HWLZlG/3+jLjCQJtK3Q/IK1egFubGb5yACbA9veCR1G3MWb8Aek6S+WKXBc8MurmHyA2jpVdgLefSQ0gF5QjWSeYKrNyNZf9+pq++prl6mmdeyAdABSdF1UgOSL/BeNkvBmK2vR7P/rT36XqS9frV5q+8yHkJfVLFn3LofEv0SsLoT3bSbZqpPkbX3ucG/10b8lCY4ws6qOnESKUZ3ZndbMEQ90lsQ6f2krpJVu70OojIpL9pW/XN1V7W2vbXvZ8Ar/r+0+dZH/WDzTWBrK5JYkLLs3/Rmr0s/a743C9+e13T1qva1Ong1rymJxOYrRPlKzenVlysFUqnM1pa8nizb89XWsON5m33nc9JNfbGtw5Rvhvutu6K9/V2RsQSm/62EdzyWrPB1hf6TCd5Btcz3elh2xLO/lF7WvTWnd9dZMNqKdM67HXP5/nulonzT05nyRkx7hzXVKe/nYNJvMtd8r8lG+YsnVuweJNL/V3+oHTfppD11uDS57ya6c9bt3THndMt3nc7usnkvgf2fzyyy+/23NaRSyoZqDd34j1jKzW8Qa2e0ZhJ7SAdDq6c8F9tDDOugywPfGcZkLP+BJEEbnFkBD9bl7K7bkG7S0I1fded20XV04hgAmU+ru5tfAyxv29wFbb9b36OOV0M6h0+9bZvGlz9boLMZnuHHcB7OI5+zmBYW1i7fNW7nbtNt+bfCp3tpHcP5Pb03giKuuUso1tc+1ibe2p37WDjQg/Gmfz3jWo/DnGJ5lFhvWNaHYOZ9dV9ms+AKVsIVs+bT/dRhACm3WSjSVQ8vf6FmMoG7TBxukIT/3oY0GptXybe6Rq21+Zrz3dgKi285M3x9+1gHnleBv7zYZuYz/rBgT8ZXpTr/NMtVtGMYJABgUdvT0xn7vzWSKMHCCLBZLaXvJWvd3qcy1bWf+9xHEJ4q7bgoHm+JG8q3fLkiSzJYy1tTK+Ef7Glm1VL18eKWsNaY88Cwi3HrmQ357xiCiFdRGxSCFZ70923rVseHHaPdc9oeUQ+xdC+dtvv10fc/zIIa2zPhfxCbDrhJ4A661DP8f0tDi6vo6wMW+dZVbr9FqUN+b1ZqwLjNvuCXJvnfjKbY32Jo+99masC1gfOZZTpqfx5fw+Gt8SqmRc+R3ree/s68283pRZfayDucnhIzLxkR5Pubwpe+rwCWzSyZKyj9bE2ffK6COydtaLNK8DvtlDcz99xCnLtZl1rE+y2vXZfNfvtP5u0d5pF4HTWxs77fskwZ/Z0fav7o2ULYlOhjfyd7PxgGhlfpKMwCHAXsJWZJ/f6kml1VmyVs//A9dTNmuf/h+hO6PUlX33Ii3VWWBbP3L6j/4+swfqJ9ebrk89amcJ6K7B035vwYP6ix+NOXtb21ybLxvTYVL3Ik4b+EYQsqFITPPc9ZANrZ6bQwRhcdrBem83/kJSnt6D8JkjOxfCCnAdVk74iWm/7ecj8FpH/5kjP53VW4B82/9NLjencVvcT+mrZLdG8N+S282xfwTy39LvTda72M/7N2B5A/yf2cDq460ebs7lrSyexvx0fcf/BvBPcnWO6zN5rL4/km/tnLK4ga4xbCbuBsRv5XeW27ZO+QQsb+wkv/G27I7jM5l/Nrcc863v1dcJeJ+1e9N9YHUDpfTk3p6LWr992s8J/Ltub0B7zifycdPr7d6Tz775rsBwAfD0MYtVN9986vk2/7PM2uTZ32n7Z//JbLffsuP1/affigRsBuPJd9/WyeLmzmcJ9lcThJvxngI8Hc4pvG9daB8J/GsWewL+I45i2eEK+kkWGW5ln5z2Of4ngPhaR/Gm/K3vP1LvyfC+Rje3fj8DujdjfQOet3E+RYpv+nwz7ic9PwHrrc3PwOYjx/c1AF4kkqM7Hd7Z1um0vtUOFjS3rTNzcPM7T3J7o6MFwl3Pb2zgqfxH/uJtu29t+olwL/F7ClKe5r5tfuQ/PtL5zfZvY72B/wnwZ71vIXJP6+mmszd+e8f2Eel4klXEY+smu35n80u0nkjDk30pX5bw30/nFlDlptVoAAAAAElFTkSuQmCC;" vertex="1" parent="1">
          <mxGeometry x="-50" y="390" width="525" height="110" as="geometry"/>
        </mxCell>
        <mxCell id="2h3vU0DmQZ6PKFMCKHge-13" value="" style="endArrow=classic;html=1;entryX=0.453;entryY=-0.036;entryDx=0;entryDy=0;entryPerimeter=0;" edge="1" parent="1" target="2h3vU0DmQZ6PKFMCKHge-12">
          <mxGeometry width="50" height="50" relative="1" as="geometry">
            <mxPoint x="187.5" y="250" as="sourcePoint"/>
            <mxPoint x="237.5" y="200" as="targetPoint"/>
          </mxGeometry>
        </mxCell>
        <mxCell id="2h3vU0DmQZ6PKFMCKHge-14" value="如果是数组，&lt;br&gt;对象头中还保存数据的长度" style="text;html=1;resizable=0;points=[];autosize=1;align=left;verticalAlign=top;spacingTop=-4;" vertex="1" parent="1">
          <mxGeometry x="20" y="350" width="160" height="30" as="geometry"/>
        </mxCell>
        <mxCell id="2h3vU0DmQZ6PKFMCKHge-15" value="对象大小必须是8字节的倍数，&lt;br&gt;当实例数据大小不是8字节倍数，&lt;br&gt;就由这部份来对齐，对象头刚好是8字节的倍数" style="text;html=1;resizable=0;points=[];autosize=1;align=left;verticalAlign=top;spacingTop=-4;" vertex="1" parent="1">
          <mxGeometry x="495" y="280" width="260" height="40" as="geometry"/>
        </mxCell>
      </root>
    </mxGraphModel>
  </diagram>
</mxfile>
